<svg xmlns="http://www.w3.org/2000/svg" xmlns:xlink="http://www.w3.org/1999/xlink" width="120" height="26" viewBox="0 0 120 26">
  <defs>
    <clipPath id="clip-path">
      <rect id="영역" width="120" height="26" fill="none"/>
    </clipPath>
  </defs>
  <g id="한국야금로고" transform="translate(-10 0)">
    <g id="그룹_75737" data-name="그룹 75737" transform="translate(10 0)" clip-path="url(#clip-path)">
      <path id="패스_3290" data-name="패스 3290" d="M13.969,20.039A4.33,4.33,0,1,1,18.3,15.708a4.33,4.33,0,0,1-4.331,4.331m9.308-1.483L21.22,12.9a7.777,7.777,0,0,0-1.236-2.115L16.169,6.235a2.9,2.9,0,0,0-4.414.043L8.03,10.716a7.747,7.747,0,0,0-1.335,2.3L4.66,18.6a2.939,2.939,0,0,0-.136.882,2.9,2.9,0,0,0,2.369,2.849l5.939,1.053a7.664,7.664,0,0,0,1.15.084,7.852,7.852,0,0,0,1.136-.081l5.929-1.049a2.9,2.9,0,0,0,2.23-3.78" transform="translate(-0.686 -0.794)" fill="#fff"/>
      <path id="패스_3291" data-name="패스 3291" d="M20.965,22.758,14.618,23.88a9.261,9.261,0,0,1-2.67,0l-6.231-1.1a4.028,4.028,0,0,1-3.239-3.948,4.077,4.077,0,0,1,.2-1.262l2.106-5.793A9.07,9.07,0,0,1,6.342,9.091l3.887-4.634a4.023,4.023,0,0,1,6.113-.013L20.3,9.164a9.049,9.049,0,0,1,1.445,2.47l2.175,5.979a4.026,4.026,0,0,1-2.955,5.145m5.47-2.692-3.27-8.981A10.521,10.521,0,0,0,21.48,8.2L15.357.9a2.811,2.811,0,0,0-4.165.037L5.178,8.116A10.574,10.574,0,0,0,3.36,11.248L.182,19.961a2.815,2.815,0,0,0,2,3.74l9.544,1.687a10.9,10.9,0,0,0,3.117,0l9.59-1.694a2.812,2.812,0,0,0,2.147-2.732,2.756,2.756,0,0,0-.145-.9" transform="translate(0 0)" fill="#fff"/>
      <path id="패스_3292" data-name="패스 3292" d="M40.893,24.569H37.149V5.34h3.744v7.247L46.755,5.34h4.688l-7.52,8.889,8.2,10.34h-4.91l-6.319-8.321" transform="translate(-5.632 -0.81)" fill="#fff"/>
      <path id="패스_3293" data-name="패스 3293" d="M95.731,21.442h5.821v3.127H91.984V5.341h3.747" transform="translate(-13.946 -0.81)" fill="#fff"/>
      <path id="패스_3294" data-name="패스 3294" d="M131.561,24.569h-3.732V14.61l-6.571-9.264h4.49l3.953,5.822,3.965-5.828h4.481l-6.586,9.307" transform="translate(-18.384 -0.81)" fill="#fff"/>
      <path id="패스_3295" data-name="패스 3295" d="M61.191,21.823a6.9,6.9,0,1,1,6.845-6.893,6.872,6.872,0,0,1-6.845,6.893m0-17A10.347,10.347,0,0,0,50.623,14.93a10.576,10.576,0,0,0,21.132,0A10.345,10.345,0,0,0,61.191,4.82" transform="translate(-7.675 -0.731)" fill="#fff"/>
      <path id="패스_3296" data-name="패스 3296" d="M111.259,21.823A6.9,6.9,0,1,1,118.1,14.93a6.872,6.872,0,0,1-6.843,6.893m0-17a10.346,10.346,0,0,0-10.568,10.11,10.575,10.575,0,0,0,21.13,0A10.345,10.345,0,0,0,111.259,4.82" transform="translate(-15.266 -0.731)" fill="#fff"/>
      <path id="패스_3297" data-name="패스 3297" d="M81.222,14.236H79.908V8.464h1.313a2.886,2.886,0,1,1,0,5.772M84.1,16.961A6.033,6.033,0,0,0,81.778,5.338H76.139v19.23h3.75V17.386l4.692,7.182h4.713Z" transform="translate(-11.544 -0.809)" fill="#fff"/>
    </g>
  </g>
</svg>
