<svg xmlns="http://www.w3.org/2000/svg" width="16" height="16" viewBox="0 0 16 16">
  <g id="세모" transform="translate(-1132 -12)">
    <rect id="버튼영역형" width="16" height="16" transform="translate(1132 12)" fill="none" opacity="0.2"/>
    <g id="다각형_2" data-name="다각형 2" transform="translate(1133 13.6)" fill="#fff">
      <path d="M 12.23381042480469 10.96667098999023 L 1.766190052032471 10.96667098999023 C 1.614019989967346 10.96667098999023 1.537310004234314 10.87132167816162 1.505130052566528 10.81448078155518 C 1.472949981689453 10.75764083862305 1.430649995803833 10.64280128479004 1.508939981460571 10.51232147216797 L 6.742760181427002 1.78930127620697 C 6.818789958953857 1.662571310997009 6.936560153961182 1.643651247024536 7 1.643651247024536 C 7.063439846038818 1.643651247024536 7.181210041046143 1.662571310997009 7.25724983215332 1.78930127620697 L 12.49104976654053 10.51232147216797 C 12.56935024261475 10.64280128479004 12.52705001831055 10.75764083862305 12.49487018585205 10.81448078155518 C 12.46269035339355 10.87132167816162 12.38597965240479 10.96667098999023 12.23381042480469 10.96667098999023 Z" stroke="none"/>
      <path d="M 7 2.721107482910156 L 2.472660064697266 10.2666711807251 L 11.52733612060547 10.2666711807251 L 7 2.721107482910156 M 7 0.9436464309692383 C 7.331645011901855 0.9436464309692383 7.663290023803711 1.105481147766113 7.857490062713623 1.42915153503418 L 13.09130001068115 10.15217113494873 C 13.49122047424316 10.81869125366211 13.01109981536865 11.66666126251221 12.23381042480469 11.66667175292969 L 1.766189575195312 11.66667175292969 C 0.9889001846313477 11.66666126251221 0.5087795257568359 10.81869125366211 0.9086999893188477 10.15217113494873 L 6.142509937286377 1.42915153503418 C 6.336709976196289 1.105481147766113 6.668354988098145 0.9436464309692383 7 0.9436464309692383 Z" stroke="none" fill="#555"/>
    </g>
  </g>
</svg>
