<svg xmlns="http://www.w3.org/2000/svg" width="16" height="16" viewBox="0 0 16 16">
  <g id="파일아이콘" transform="translate(0 0)">
    <rect id="영역" width="16" height="16" transform="translate(0 0)" fill="none"/>
    <path id="아이콘" d="M4.882,13.3A4.909,4.909,0,0,1,1.41,4.944l3.963-3.92a3.5,3.5,0,0,1,4.951,4.944L6.362,9.916A2.11,2.11,0,0,1,3.388,6.921L7.351,2.973a.7.7,0,0,1,.992,0l0,0a.7.7,0,0,1,0,.989L4.384,7.91a.7.7,0,1,0,.989.989L9.335,4.944A2.1,2.1,0,0,0,6.362,1.991L2.4,5.933a3.486,3.486,0,0,0,4.951,4.909L12.8,5.414a.7.7,0,0,1,.992,0l0,0a.7.7,0,0,1,0,.989L8.346,11.838A4.909,4.909,0,0,1,4.882,13.3" transform="translate(1 1)" fill="#333"/>
  </g>
</svg>
