<svg xmlns="http://www.w3.org/2000/svg" width="50" height="50" viewBox="0 0 50 50">
  <g id="아이콘02" transform="translate(9.001)">
    <rect id="영역" width="50" height="50" transform="translate(-9.001)" fill="none"/>
    <path id="패스_2915" data-name="패스 2915" d="M12.1,33.333A8.228,8.228,0,0,1,4,25V8.333A8.228,8.228,0,0,1,12.1,0a8.228,8.228,0,0,1,8.1,8.333V25a8.228,8.228,0,0,1-8.1,8.333m0-29.167A4.114,4.114,0,0,0,8.051,8.333V25A4.114,4.114,0,0,0,12.1,29.167,4.114,4.114,0,0,0,16.153,25V8.333A4.114,4.114,0,0,0,12.1,4.167" transform="translate(4.101 0)" fill="#0080bc"/>
    <path id="패스_2916" data-name="패스 2916" d="M16.2,31.917A16.459,16.459,0,0,1,0,15.25V11.083A2.056,2.056,0,0,1,2.025,9a2.056,2.056,0,0,1,2.025,2.083V15.25A12.342,12.342,0,0,0,16.2,27.75a12.342,12.342,0,0,0,12.153-12.5V11.083a2.026,2.026,0,1,1,4.051,0V15.25A16.459,16.459,0,0,1,16.2,31.917" transform="translate(0 9.75)" fill="#0080bc"/>
    <path id="패스_2917" data-name="패스 2917" d="M9.025,30.5A2.054,2.054,0,0,1,7,28.417V20.083a2.026,2.026,0,1,1,4.051,0v8.333A2.054,2.054,0,0,1,9.025,30.5" transform="translate(7.178 19.5)" fill="#0080bc"/>
    <path id="패스_2918" data-name="패스 2918" d="M21.229,26.167H5.025a2.084,2.084,0,0,1,0-4.167h16.2a2.084,2.084,0,0,1,0,4.167" transform="translate(3.076 23.833)" fill="#0080bc"/>
  </g>
</svg>
