<svg xmlns="http://www.w3.org/2000/svg" width="50" height="50" viewBox="0 0 50 50">
  <g id="아이콘01" transform="translate(-15 -15)">
    <rect id="영역" width="50" height="50" transform="translate(15 15)" fill="none"/>
    <path id="패스_2919" data-name="패스 2919" d="M36.195,25.855a13.744,13.744,0,1,0-2.938,2.475A20.534,20.534,0,0,1,46.5,45.857H5.5a20.582,20.582,0,0,1,6.991-13.8,1.714,1.714,0,1,0-2.253-2.585A24,24,0,0,0,2,47.571a1.714,1.714,0,0,0,1.714,1.714H48.286A1.713,1.713,0,0,0,50,47.571,23.957,23.957,0,0,0,36.195,25.855ZM15.714,16.714A10.286,10.286,0,1,1,26,27,10.3,10.3,0,0,1,15.714,16.714Z" transform="translate(14 13.5)" fill="#0080bc" stroke="#0080bc" stroke-width="1"/>
  </g>
</svg>
