<svg xmlns="http://www.w3.org/2000/svg" width="16" height="16" viewBox="0 0 16 16">
  <g id="즐겨찾기_on" data-name="즐겨찾기 on" transform="translate(-4 -4)">
    <rect id="영역" width="16" height="16" transform="translate(4 4)" fill="none"/>
    <path id="별_on" data-name="별 on" d="M7.574,3.572l1.652,3.3a.671.671,0,0,0,.49.35l3.71.518a.64.64,0,0,1,.364,1.092L11.1,11.4a.606.606,0,0,0-.182.56l.63,3.612a.649.649,0,0,1-.952.672l-3.3-1.694a.653.653,0,0,0-.6,0L3.359,16.257a.654.654,0,0,1-.952-.672l.63-3.612a.6.6,0,0,0-.182-.56L.181,8.836A.639.639,0,0,1,.545,7.744l3.71-.532a.637.637,0,0,0,.49-.35L6.4,3.572A.672.672,0,0,1,7.574,3.572Z" transform="translate(5.017 2.284)" fill="#fc0"/>
  </g>
</svg>
