<svg id="즐겨찾기" xmlns="http://www.w3.org/2000/svg" width="16" height="16" viewBox="0 0 16 16">
  <g id="즐겨찾기-2" data-name="즐겨찾기" transform="translate(-4 -4)">
    <rect id="영역" width="16" height="16" transform="translate(4 4)" fill="none"/>
    <path id="별" d="M3.148,16.291a.693.693,0,0,1-.685-.811l.629-3.58a.564.564,0,0,0-.168-.5L.267,8.864a.658.658,0,0,1-.182-.7A.7.7,0,0,1,.659,7.69l3.678-.517a.568.568,0,0,0,.448-.322L6.407,3.578a.713.713,0,0,1,1.259,0h0l1.65,3.259a.6.6,0,0,0,.448.322l3.678.517a.719.719,0,0,1,.573.476.658.658,0,0,1-.182.7l-2.657,2.531a.564.564,0,0,0-.168.5l.6,3.594a.694.694,0,0,1-.266.671.71.71,0,0,1-.741.056L7.316,14.515a.622.622,0,0,0-.545,0l-3.3,1.692A.65.65,0,0,1,3.148,16.291Zm3.888-1.944a.65.65,0,0,1,.322.084l3.287,1.692a.573.573,0,0,0,.629-.056.541.541,0,0,0,.224-.559l-.629-3.58a.721.721,0,0,1,.2-.615L13.722,8.78a.549.549,0,0,0,.154-.587A.576.576,0,0,0,13.4,7.8L9.722,7.284a.7.7,0,0,1-.531-.378L7.568,3.634a.6.6,0,0,0-1.063,0L4.868,6.892a.691.691,0,0,1-.531.378L.659,7.787a.576.576,0,0,0-.476.392.549.549,0,0,0,.154.587L2.994,11.3a.67.67,0,0,1,.2.615l-.629,3.594a.551.551,0,0,0,.224.559.6.6,0,0,0,.629.056L6.7,14.431A.745.745,0,0,1,7.036,14.347Z" transform="translate(4.95 2.319)" fill="#fff" stroke="#c9c9c9" stroke-width="1"/>
  </g>
</svg>
