<svg xmlns="http://www.w3.org/2000/svg" width="1740" height="290" viewBox="0 0 1740 290">
  <g id="그래프이미지2" transform="translate(-50 -290)">
    <rect id="영역" width="1740" height="290" transform="translate(50 290)" fill="none"/>
    <g id="가로라인" transform="translate(712 -77)">
      <rect id="가로라인-2" data-name="가로라인" width="1700" height="1" transform="translate(-622 576)" fill="#e0e0e0"/>
      <rect id="가로라인-3" data-name="가로라인" width="1700" height="1" transform="translate(-622 526)" fill="#e0e0e0"/>
      <rect id="가로라인-4" data-name="가로라인" width="1700" height="1" transform="translate(-622 476)" fill="#e0e0e0"/>
      <rect id="가로라인-5" data-name="가로라인" width="1700" height="1" transform="translate(-622 426)" fill="#e0e0e0"/>
      <rect id="가로라인-6" data-name="가로라인" width="1700" height="1" transform="translate(-622 376)" fill="#e0e0e0"/>
    </g>
    <g id="건수" transform="translate(-30 -20)">
      <rect id="세로라인" width="1" height="260" transform="translate(120 310)"/>
      <text id="_0" data-name="0" transform="translate(110 573)" font-size="12" font-family="SF Pro"><tspan x="-7" y="0">0</tspan></text>
      <text id="_10" data-name="10" transform="translate(110 523)" font-size="12" font-family="SF Pro"><tspan x="-12" y="0">10</tspan></text>
      <text id="_20" data-name="20" transform="translate(110 473)" font-size="12" font-family="SF Pro"><tspan x="-14" y="0">20</tspan></text>
      <text id="_30" data-name="30" transform="translate(110 423)" font-size="12" font-family="SF Pro"><tspan x="-14" y="0">30</tspan></text>
      <text id="_40" data-name="40" transform="translate(110 373)" font-size="12" font-family="SF Pro"><tspan x="-14" y="0">40</tspan></text>
      <text id="_50" data-name="50" transform="translate(110 323)" font-size="12" font-family="SF Pro"><tspan x="-14" y="0">50</tspan></text>
    </g>
    <g id="날짜" transform="translate(60 -20)">
      <rect id="가로라인-7" data-name="가로라인" width="1700" height="1" transform="translate(30 569)"/>
      <text id="_6.1" data-name="6.1" transform="translate(147 593)" font-size="12" font-family="SF Pro"><tspan x="-7" y="0">6.1</tspan></text>
      <text id="_6.2" data-name="6.2" transform="translate(195 593)" font-size="12" font-family="SF Pro"><tspan x="-8" y="0">6.2</tspan></text>
      <text id="_6.3" data-name="6.3" transform="translate(244.999 593)" font-size="12" font-family="SF Pro"><tspan x="-8" y="0">6.3</tspan></text>
      <text id="_6.4" data-name="6.4" transform="translate(295.001 593)" font-size="12" font-family="SF Pro"><tspan x="-8" y="0">6.4</tspan></text>
      <text id="_6.5" data-name="6.5" transform="translate(345 593)" font-size="12" font-family="SF Pro"><tspan x="-8" y="0">6.5</tspan></text>
      <text id="_6.6" data-name="6.6" transform="translate(395 593)" font-size="12" font-family="SF Pro"><tspan x="-8" y="0">6.6</tspan></text>
      <text id="_6.7" data-name="6.7" transform="translate(443.999 593)" font-size="12" font-family="SF Pro"><tspan x="-8" y="0">6.7</tspan></text>
      <text id="_6.8" data-name="6.8" transform="translate(495.001 593)" font-size="12" font-family="SF Pro"><tspan x="-8" y="0">6.8</tspan></text>
      <text id="_6.9" data-name="6.9" transform="translate(545 593)" font-size="12" font-family="SF Pro"><tspan x="-8" y="0">6.9</tspan></text>
      <text id="_6.10" data-name="6.10" transform="translate(595 593)" font-size="12" font-family="SF Pro"><tspan x="-11" y="0">6.10</tspan></text>
      <text id="_6.11" data-name="6.11" transform="translate(643.999 593)" font-size="12" font-family="SF Pro"><tspan x="-10" y="0">6.11</tspan></text>
      <text id="_6.12" data-name="6.12" transform="translate(695.001 593)" font-size="12" font-family="SF Pro"><tspan x="-10" y="0">6.12</tspan></text>
      <text id="_6.13" data-name="6.13" transform="translate(745 593)" font-size="12" font-family="SF Pro"><tspan x="-10" y="0">6.13</tspan></text>
      <text id="_6.14" data-name="6.14" transform="translate(795 593)" font-size="12" font-family="SF Pro"><tspan x="-11" y="0">6.14</tspan></text>
      <text id="_6.15" data-name="6.15" transform="translate(845 593)" font-size="12" font-family="SF Pro"><tspan x="-10" y="0">6.15</tspan></text>
      <text id="_6.16" data-name="6.16" transform="translate(895 593)" font-size="12" font-family="SF Pro"><tspan x="-11" y="0">6.16</tspan></text>
      <text id="_6.17" data-name="6.17" transform="translate(946 593)" font-size="12" font-family="SF Pro"><tspan x="-10" y="0">6.17</tspan></text>
      <text id="_6.18" data-name="6.18" transform="translate(995 593)" font-size="12" font-family="SF Pro"><tspan x="-11" y="0">6.18</tspan></text>
      <text id="_6.19" data-name="6.19" transform="translate(1044.999 593)" font-size="12" font-family="SF Pro"><tspan x="-11" y="0">6.19</tspan></text>
      <text id="_6.20" data-name="6.20" transform="translate(1096 593)" font-size="12" font-family="SF Pro"><tspan x="-12" y="0">6.20</tspan></text>
      <text id="_6.21" data-name="6.21" transform="translate(1145 593)" font-size="12" font-family="SF Pro"><tspan x="-11" y="0">6.21</tspan></text>
      <text id="_6.22" data-name="6.22" transform="translate(1195 593)" font-size="12" font-family="SF Pro"><tspan x="-11" y="0">6.22</tspan></text>
      <text id="_6.23" data-name="6.23" transform="translate(1246 593)" font-size="12" font-family="SF Pro"><tspan x="-11" y="0">6.23</tspan></text>
      <text id="_6.24" data-name="6.24" transform="translate(1295.001 593)" font-size="12" font-family="SF Pro"><tspan x="-11" y="0">6.24</tspan></text>
      <text id="_6.25" data-name="6.25" transform="translate(1345 593)" font-size="12" font-family="SF Pro"><tspan x="-11" y="0">6.25</tspan></text>
      <text id="_6.26" data-name="6.26" transform="translate(1395 593)" font-size="12" font-family="SF Pro"><tspan x="-12" y="0">6.26</tspan></text>
      <text id="_6.27" data-name="6.27" transform="translate(1445 593)" font-size="12" font-family="SF Pro"><tspan x="-11" y="0">6.27</tspan></text>
      <text id="_6.28" data-name="6.28" transform="translate(1494.001 593)" font-size="12" font-family="SF Pro"><tspan x="-11" y="0">6.28</tspan></text>
      <text id="_6.29" data-name="6.29" transform="translate(1544 593)" font-size="12" font-family="SF Pro"><tspan x="-12" y="0">6.29</tspan></text>
      <text id="_6.30" data-name="6.30" transform="translate(1595 593)" font-size="12" font-family="SF Pro"><tspan x="-12" y="0">6.30</tspan></text>
    </g>
    <g id="막대바" transform="translate(80)">
      <path id="사각형_526" data-name="사각형 526" d="M0,0H6A0,0,0,0,1,6,0V107a3,3,0,0,1-3,3H3a3,3,0,0,1-3-3V0A0,0,0,0,1,0,0Z" transform="translate(130 549) rotate(180)" fill="#8ca9f7"/>
      <path id="사각형_527" data-name="사각형 527" d="M0,0H6A0,0,0,0,1,6,0V37a3,3,0,0,1-3,3H3a3,3,0,0,1-3-3V0A0,0,0,0,1,0,0Z" transform="translate(180 549) rotate(180)" fill="#8ca9f7"/>
      <path id="사각형_528" data-name="사각형 528" d="M0,0H6A0,0,0,0,1,6,0V17a3,3,0,0,1-3,3H3a3,3,0,0,1-3-3V0A0,0,0,0,1,0,0Z" transform="translate(230 549) rotate(180)" fill="#8ca9f7"/>
      <path id="사각형_529" data-name="사각형 529" d="M0,0H6A0,0,0,0,1,6,0V137a3,3,0,0,1-3,3H3a3,3,0,0,1-3-3V0A0,0,0,0,1,0,0Z" transform="translate(280 549) rotate(180)" fill="#8ca9f7"/>
      <path id="사각형_530" data-name="사각형 530" d="M0,0H6A0,0,0,0,1,6,0V97a3,3,0,0,1-3,3H3a3,3,0,0,1-3-3V0A0,0,0,0,1,0,0Z" transform="translate(330 549) rotate(180)" fill="#8ca9f7"/>
      <path id="사각형_531" data-name="사각형 531" d="M0,0H6A0,0,0,0,1,6,0V87a3,3,0,0,1-3,3H3a3,3,0,0,1-3-3V0A0,0,0,0,1,0,0Z" transform="translate(380 549) rotate(180)" fill="#8ca9f7"/>
      <path id="사각형_532" data-name="사각형 532" d="M0,0H6A0,0,0,0,1,6,0V107a3,3,0,0,1-3,3H3a3,3,0,0,1-3-3V0A0,0,0,0,1,0,0Z" transform="translate(430 549) rotate(180)" fill="#8ca9f7"/>
      <path id="사각형_533" data-name="사각형 533" d="M0,0H6A0,0,0,0,1,6,0V187a3,3,0,0,1-3,3H3a3,3,0,0,1-3-3V0A0,0,0,0,1,0,0Z" transform="translate(480 549) rotate(180)" fill="#8ca9f7"/>
      <path id="사각형_534" data-name="사각형 534" d="M0,0H6A0,0,0,0,1,6,0V237a3,3,0,0,1-3,3H3a3,3,0,0,1-3-3V0A0,0,0,0,1,0,0Z" transform="translate(530 549) rotate(180)" fill="#8ca9f7"/>
      <path id="사각형_535" data-name="사각형 535" d="M0,0H6A0,0,0,0,1,6,0V17a3,3,0,0,1-3,3H3a3,3,0,0,1-3-3V0A0,0,0,0,1,0,0Z" transform="translate(580 549) rotate(180)" fill="#8ca9f7"/>
      <path id="사각형_536" data-name="사각형 536" d="M0,0H6A0,0,0,0,1,6,0V37a3,3,0,0,1-3,3H3a3,3,0,0,1-3-3V0A0,0,0,0,1,0,0Z" transform="translate(630 549) rotate(180)" fill="#8ca9f7"/>
      <path id="사각형_537" data-name="사각형 537" d="M0,0H6A0,0,0,0,1,6,0V117a3,3,0,0,1-3,3H3a3,3,0,0,1-3-3V0A0,0,0,0,1,0,0Z" transform="translate(680 549) rotate(180)" fill="#8ca9f7"/>
      <path id="사각형_538" data-name="사각형 538" d="M0,0H6A0,0,0,0,1,6,0V77a3,3,0,0,1-3,3H3a3,3,0,0,1-3-3V0A0,0,0,0,1,0,0Z" transform="translate(730 549) rotate(180)" fill="#8ca9f7"/>
      <path id="사각형_539" data-name="사각형 539" d="M0,0H6A0,0,0,0,1,6,0V167a3,3,0,0,1-3,3H3a3,3,0,0,1-3-3V0A0,0,0,0,1,0,0Z" transform="translate(780 549) rotate(180)" fill="#8ca9f7"/>
      <path id="사각형_540" data-name="사각형 540" d="M0,0H6A0,0,0,0,1,6,0V157a3,3,0,0,1-3,3H3a3,3,0,0,1-3-3V0A0,0,0,0,1,0,0Z" transform="translate(830 549) rotate(180)" fill="#8ca9f7"/>
      <path id="사각형_541" data-name="사각형 541" d="M0,0H6A0,0,0,0,1,6,0V197a3,3,0,0,1-3,3H3a3,3,0,0,1-3-3V0A0,0,0,0,1,0,0Z" transform="translate(880 549) rotate(180)" fill="#8ca9f7"/>
      <path id="사각형_542" data-name="사각형 542" d="M0,0H6A0,0,0,0,1,6,0V57a3,3,0,0,1-3,3H3a3,3,0,0,1-3-3V0A0,0,0,0,1,0,0Z" transform="translate(930 549) rotate(180)" fill="#8ca9f7"/>
      <path id="사각형_543" data-name="사각형 543" d="M0,0H6A0,0,0,0,1,6,0V67a3,3,0,0,1-3,3H3a3,3,0,0,1-3-3V0A0,0,0,0,1,0,0Z" transform="translate(980 549) rotate(180)" fill="#8ca9f7"/>
      <path id="사각형_544" data-name="사각형 544" d="M0,0H6A0,0,0,0,1,6,0V117a3,3,0,0,1-3,3H3a3,3,0,0,1-3-3V0A0,0,0,0,1,0,0Z" transform="translate(1030 549) rotate(180)" fill="#8ca9f7"/>
      <path id="사각형_545" data-name="사각형 545" d="M0,0H6A0,0,0,0,1,6,0V237a3,3,0,0,1-3,3H3a3,3,0,0,1-3-3V0A0,0,0,0,1,0,0Z" transform="translate(1080 549) rotate(180)" fill="#8ca9f7"/>
      <path id="사각형_546" data-name="사각형 546" d="M0,0H6A0,0,0,0,1,6,0V247a3,3,0,0,1-3,3H3a3,3,0,0,1-3-3V0A0,0,0,0,1,0,0Z" transform="translate(1130 549) rotate(180)" fill="#8ca9f7"/>
      <path id="사각형_547" data-name="사각형 547" d="M0,0H6A0,0,0,0,1,6,0V197a3,3,0,0,1-3,3H3a3,3,0,0,1-3-3V0A0,0,0,0,1,0,0Z" transform="translate(1180 549) rotate(180)" fill="#8ca9f7"/>
      <path id="사각형_548" data-name="사각형 548" d="M0,0H6A0,0,0,0,1,6,0V227a3,3,0,0,1-3,3H3a3,3,0,0,1-3-3V0A0,0,0,0,1,0,0Z" transform="translate(1230 549) rotate(180)" fill="#8ca9f7"/>
      <path id="사각형_549" data-name="사각형 549" d="M0,0H6A0,0,0,0,1,6,0V177a3,3,0,0,1-3,3H3a3,3,0,0,1-3-3V0A0,0,0,0,1,0,0Z" transform="translate(1280 549) rotate(180)" fill="#8ca9f7"/>
      <path id="사각형_550" data-name="사각형 550" d="M0,0H6A0,0,0,0,1,6,0V37a3,3,0,0,1-3,3H3a3,3,0,0,1-3-3V0A0,0,0,0,1,0,0Z" transform="translate(1330 549) rotate(180)" fill="#8ca9f7"/>
      <path id="사각형_551" data-name="사각형 551" d="M0,0H6A0,0,0,0,1,6,0V27a3,3,0,0,1-3,3H3a3,3,0,0,1-3-3V0A0,0,0,0,1,0,0Z" transform="translate(1380 549) rotate(180)" fill="#8ca9f7"/>
      <path id="사각형_552" data-name="사각형 552" d="M0,0H6A0,0,0,0,1,6,0V57a3,3,0,0,1-3,3H3a3,3,0,0,1-3-3V0A0,0,0,0,1,0,0Z" transform="translate(1430 549) rotate(180)" fill="#8ca9f7"/>
      <path id="사각형_553" data-name="사각형 553" d="M0,0H6A0,0,0,0,1,6,0V37a3,3,0,0,1-3,3H3a3,3,0,0,1-3-3V0A0,0,0,0,1,0,0Z" transform="translate(1480 549) rotate(180)" fill="#8ca9f7"/>
      <path id="사각형_554" data-name="사각형 554" d="M0,0H6A0,0,0,0,1,6,0V117a3,3,0,0,1-3,3H3a3,3,0,0,1-3-3V0A0,0,0,0,1,0,0Z" transform="translate(1530 549) rotate(180)" fill="#8ca9f7"/>
      <path id="사각형_555" data-name="사각형 555" d="M0,0H6A0,0,0,0,1,6,0V97a3,3,0,0,1-3,3H3a3,3,0,0,1-3-3V0A0,0,0,0,1,0,0Z" transform="translate(1580 549) rotate(180)" fill="#8ca9f7"/>
    </g>
  </g>
</svg>
