<svg xmlns="http://www.w3.org/2000/svg" width="130" height="26" viewBox="0 0 130 26">
  <g id="한국야금_K-NOTE" data-name="한국야금 K-NOTE" transform="translate(31 6)">
    <rect id="영역" width="130" height="26" transform="translate(-31 -6)" fill="none"/>
    <g id="그룹_75884" data-name="그룹 75884" transform="translate(-31 -6)">
      <path id="패스_3290" data-name="패스 3290" d="M13.969,20.039A4.33,4.33,0,1,1,18.3,15.708a4.33,4.33,0,0,1-4.331,4.331m9.308-1.483L21.22,12.9a7.777,7.777,0,0,0-1.236-2.115L16.169,6.235a2.9,2.9,0,0,0-4.414.043L8.03,10.716a7.747,7.747,0,0,0-1.335,2.3L4.66,18.6a2.939,2.939,0,0,0-.136.882,2.9,2.9,0,0,0,2.369,2.849l5.939,1.053a7.664,7.664,0,0,0,1.15.084,7.852,7.852,0,0,0,1.136-.081l5.929-1.049a2.9,2.9,0,0,0,2.23-3.78" transform="translate(-0.686 -0.794)" fill="#fff"/>
      <path id="패스_3291" data-name="패스 3291" d="M20.965,22.758,14.618,23.88a9.261,9.261,0,0,1-2.67,0l-6.231-1.1a4.028,4.028,0,0,1-3.239-3.948,4.077,4.077,0,0,1,.2-1.262l2.106-5.793A9.07,9.07,0,0,1,6.342,9.091l3.887-4.634a4.023,4.023,0,0,1,6.113-.013L20.3,9.164a9.049,9.049,0,0,1,1.445,2.47l2.175,5.979a4.026,4.026,0,0,1-2.955,5.145m5.47-2.692-3.27-8.981A10.521,10.521,0,0,0,21.48,8.2L15.357.9a2.811,2.811,0,0,0-4.165.037L5.178,8.116A10.574,10.574,0,0,0,3.36,11.248L.182,19.961a2.815,2.815,0,0,0,2,3.74l9.544,1.687a10.9,10.9,0,0,0,3.117,0l9.59-1.694a2.812,2.812,0,0,0,2.147-2.732,2.756,2.756,0,0,0-.145-.9" transform="translate(0 0)" fill="#fff"/>
    </g>
    <path id="패스_3619" data-name="패스 3619" d="M9.61.437,3.745,7.6V.437H0v19.02H3.745V11.225l6.321,8.232H14.98L6.777,9.229,14.3.437Z" transform="translate(1 -3)" fill="#fff"/>
    <rect id="사각형_813" data-name="사각형 813" width="11.667" height="2.5" transform="translate(15.667 5.997)" fill="#fff"/>
    <path id="패스_3616" data-name="패스 3616" d="M42.491.437V13.848L33.36.437H29.7V19.46h3.425V6.048L42.253,19.46h3.662V.437Z" transform="translate(1 -3)" fill="#fff"/>
    <path id="패스_3620" data-name="패스 3620" d="M57.387,0A10.235,10.235,0,0,0,46.934,10a10.461,10.461,0,0,0,20.9,0A10.232,10.232,0,0,0,57.387,0m0,16.819a6.821,6.821,0,1,1,6.77-6.872V10a6.8,6.8,0,0,1-6.77,6.819" transform="translate(1 -3)" fill="#fff"/>
    <path id="패스_3617" data-name="패스 3617" d="M67.074.437V3.385h5.755V19.46h3.424V3.385h5.755V.437Z" transform="translate(1 -3)" fill="#fff"/>
    <path id="패스_3618" data-name="패스 3618" d="M83.137.437V19.46H97.024V16.511H86.561V10.947h9.988V8H86.561V3.385H96.786V.437Z" transform="translate(1 -3)" fill="#fff"/>
  </g>
</svg>
