<svg id="아이콘4" xmlns="http://www.w3.org/2000/svg" width="24" height="24" viewBox="0 0 24 24">
  <rect id="사각형_411" data-name="사각형 411" width="24" height="24" fill="none"/>
  <path id="패스_3271" data-name="패스 3271" d="M18.556,4h-.972V2H15.639V4H7.861V2H5.917V4H4.944A1.964,1.964,0,0,0,3.01,6L3,20a1.972,1.972,0,0,0,1.944,2H18.556A1.979,1.979,0,0,0,20.5,20V6A1.979,1.979,0,0,0,18.556,4Zm0,16H4.944V10H18.556ZM8.833,14H6.889V12H8.833Zm3.889,0H10.778V12h1.944Zm3.889,0H14.667V12h1.944ZM8.833,18H6.889V16H8.833Zm3.889,0H10.778V16h1.944Zm3.889,0H14.667V16h1.944Z" fill="#333"/>
</svg>
