<svg xmlns="http://www.w3.org/2000/svg" width="19.997" height="17.141" viewBox="0 0 19.997 17.141">
  <g id="아이콘7" transform="translate(-2 -3.429)">
    <g id="그룹_75729" data-name="그룹 75729" transform="translate(-1 -0.571)">
      <path id="패스_3280" data-name="패스 3280" d="M11.709,6c-.971,0-5.542.728-5.7,5.542a6.426,6.426,0,0,0,4.857-5.014,6.328,6.328,0,0,0,6.328,3.714A5.67,5.67,0,0,0,11.709,6Z" transform="translate(1.289 0.857)" fill="#333"/>
      <circle id="타원_110" data-name="타원 110" cx="1.25" cy="1.25" r="1.25" transform="translate(8.5 12.57)" fill="#333"/>
      <circle id="타원_111" data-name="타원 111" cx="1.25" cy="1.25" r="1.25" transform="translate(15 12.57)" fill="#333"/>
      <path id="패스_3281" data-name="패스 3281" d="M21.569,12.57a8.57,8.57,0,1,0-17.141,0A1.433,1.433,0,0,0,3,14v2.857a1.433,1.433,0,0,0,1.428,1.428H5.857V12.57a7.142,7.142,0,1,1,14.284,0v7.142H11.57v1.428h8.57a1.433,1.433,0,0,0,1.428-1.428V18.284A1.433,1.433,0,0,0,23,16.855V14A1.433,1.433,0,0,0,21.569,12.57Z" fill="#333"/>
    </g>
  </g>
</svg>
