<svg id="아이콘2" xmlns="http://www.w3.org/2000/svg" width="24" height="24" viewBox="0 0 24 24">
  <rect id="사각형_481" data-name="사각형 481" width="24" height="24" fill="none"/>
  <path id="패스_2880" data-name="패스 2880" d="M6.545,2.818H3.818V5.545H2V1H6.545ZM20.182,5.545V1H15.636V2.818h2.727V5.545ZM6.545,19.182H3.818V16.455H2V21H6.545Zm11.818-2.727v2.727H15.636V21h4.545V16.455ZM15.636,5.545H6.545V16.455h9.091Zm1.818,10.909a1.824,1.824,0,0,1-1.818,1.818H6.545a1.824,1.824,0,0,1-1.818-1.818V5.545A1.824,1.824,0,0,1,6.545,3.727h9.091a1.824,1.824,0,0,1,1.818,1.818ZM13.818,7.364H8.364V9.182h5.455Zm0,2.727H8.364v1.818h5.455Zm0,2.727H8.364v1.818h5.455Z" transform="translate(1 1)" fill="#333"/>
</svg>
