<svg xmlns="http://www.w3.org/2000/svg" width="15" height="40" viewBox="0 0 15 40">
  <g id="열림화살표" transform="translate(30 -2)">
    <g id="사각형_667" data-name="사각형 667" transform="translate(-30 2)" fill="#fff" stroke="#e0e0e0" stroke-width="1">
      <path d="M0,0H12a3,3,0,0,1,3,3V37a3,3,0,0,1-3,3H0a0,0,0,0,1,0,0V0A0,0,0,0,1,0,0Z" stroke="none"/>
      <path d="M1,.5H12A2.5,2.5,0,0,1,14.5,3V37A2.5,2.5,0,0,1,12,39.5H1A.5.5,0,0,1,.5,39V1A.5.5,0,0,1,1,.5Z" fill="none"/>
    </g>
    <path id="닫힘" d="M0,0,4,4,8,0" transform="translate(-24 26) rotate(-90)" fill="none" stroke="#555" stroke-linecap="round" stroke-linejoin="round" stroke-width="1.4"/>
  </g>
</svg>
