<svg xmlns="http://www.w3.org/2000/svg" width="24" height="24" viewBox="0 0 24 24">
  <g id="음성아이콘" transform="translate(7 -3)">
    <rect id="영역" width="24" height="16" transform="translate(-7 7)" fill="none"/>
    <g id="마이크아이콘" transform="translate(-3 3)">
      <path id="패스_2915" data-name="패스 2915" d="M7.889,16A3.95,3.95,0,0,1,4,12V4A3.95,3.95,0,0,1,7.889,0a3.95,3.95,0,0,1,3.889,4v8a3.95,3.95,0,0,1-3.889,4m0-14A1.975,1.975,0,0,0,5.944,4v8a1.945,1.945,0,1,0,3.889,0V4A1.975,1.975,0,0,0,7.889,2" transform="translate(-0.111 0)" fill="#333"/>
      <path id="패스_2916" data-name="패스 2916" d="M7.778,20A7.9,7.9,0,0,1,0,12V10A.987.987,0,0,1,.972,9a.987.987,0,0,1,.972,1v2a5.924,5.924,0,0,0,5.833,6,5.924,5.924,0,0,0,5.833-6V10a.973.973,0,1,1,1.944,0v2a7.9,7.9,0,0,1-7.778,8" transform="translate(0 0)" fill="#333"/>
      <path id="패스_2917" data-name="패스 2917" d="M7.972,24A.986.986,0,0,1,7,23V19a.973.973,0,1,1,1.944,0v4a.986.986,0,0,1-.972,1" transform="translate(-0.195 0)" fill="#333"/>
    </g>
  </g>
</svg>
