<svg xmlns="http://www.w3.org/2000/svg" width="16.1" height="16" viewBox="0 0 16.1 16">
  <g id="요약아이콘06" transform="translate(0.05 0)">
    <rect id="영역" width="16" height="16" transform="translate(0 0)" fill="none"/>
    <path id="패스_3401" data-name="패스 3401" d="M14.667,14.333h-4V11.667H8.88a4.667,4.667,0,1,1,0-4H16v4H14.667ZM12,13h1.333V10.333h1.333V9H7.96l-.153-.447a3.333,3.333,0,1,0,0,2.227l.153-.447H12ZM4.667,11.667a2,2,0,1,1,2-2A2.006,2.006,0,0,1,4.667,11.667ZM4.667,9a.667.667,0,1,0,.667.667A.669.669,0,0,0,4.667,9Z" transform="translate(0 -2)" fill="#333" stroke="#333" stroke-width="0.1"/>
  </g>
</svg>
