<svg xmlns="http://www.w3.org/2000/svg" width="16" height="16" viewBox="0 0 16 16">
  <g id="요약아이콘03" transform="translate(0 0)">
    <rect id="영역" width="16" height="16" transform="translate(0 0)" fill="none"/>
    <g id="그룹_75834" data-name="그룹 75834" transform="translate(-2 -2)">
      <g id="그룹_75833" data-name="그룹 75833" transform="translate(3 3)">
        <path id="패스_3403" data-name="패스 3403" d="M12.333,3H4.556A1.553,1.553,0,0,0,3.008,4.556L3,15.444A1.553,1.553,0,0,0,4.548,17h10.9A1.56,1.56,0,0,0,17,15.444V7.667ZM4.556,15.444V4.556h7V8.444h3.889v7ZM7.667,6.889a.778.778,0,1,1-.778-.778A.78.78,0,0,1,7.667,6.889Zm0,3.111a.778.778,0,1,1-.778-.778A.78.78,0,0,1,7.667,10Zm0,3.111a.778.778,0,1,1-.778-.778A.78.78,0,0,1,7.667,13.111Z" transform="translate(-3 -3)" fill="#333"/>
      </g>
    </g>
  </g>
</svg>
