<svg id="사용자_아이콘2" xmlns="http://www.w3.org/2000/svg" width="24" height="24" viewBox="0 0 24 24">
  <rect id="사각형_741" data-name="사각형 741" width="24" height="24" fill="none"/>
  <path id="패스_3330" data-name="패스 3330" d="M22.38,9.963l-5.655-.491-2.208-5.2a1.169,1.169,0,0,0-2.15,0L10.158,9.484l-5.644.479a1.166,1.166,0,0,0-.666,2.045l4.288,3.716L6.851,21.238A1.166,1.166,0,0,0,8.592,22.5l4.849-2.921,4.849,2.933a1.166,1.166,0,0,0,1.741-1.262l-1.285-5.527,4.288-3.716a1.163,1.163,0,0,0-.654-2.045Zm-8.939,7.431L9.048,20.046l1.168-5L6.337,11.68l5.118-.444,1.986-4.709,2,4.72,5.118.444-3.879,3.365,1.168,5Z" transform="translate(-1.443 -1.162)" fill="#333"/>
</svg>
