<svg id="사용자_아이콘3" xmlns="http://www.w3.org/2000/svg" width="24" height="24" viewBox="0 0 24 24">
  <rect id="사각형_740" data-name="사각형 740" width="24" height="24" fill="none"/>
  <path id="패스_3345" data-name="패스 3345" d="M6,19a2.006,2.006,0,0,0,2,2h9a2.006,2.006,0,0,0,2-2V9a2.006,2.006,0,0,0-2-2H8A2.006,2.006,0,0,0,6,9ZM9,9h7a1,1,0,0,1,1,1v8a1,1,0,0,1-1,1H9a1,1,0,0,1-1-1V10A1,1,0,0,1,9,9Zm7.5-5-.71-.71a1.009,1.009,0,0,0-.7-.29H9.91a1.009,1.009,0,0,0-.7.29L8.5,4H6A1,1,0,0,0,6,6H19a1,1,0,0,0,0-2Z" transform="translate(-0.5)" fill="#333"/>
</svg>
