<svg xmlns="http://www.w3.org/2000/svg" xmlns:xlink="http://www.w3.org/1999/xlink" width="150" height="30" viewBox="0 0 150 30">
  <defs>
    <clipPath id="clip-path">
      <rect id="사각형_807" data-name="사각형 807" width="126" height="26.182" fill="none"/>
    </clipPath>
    <clipPath id="clip-path-3">
      <rect id="사각형_804" data-name="사각형 804" width="4.364" height="23.564" fill="none"/>
    </clipPath>
    <clipPath id="clip-path-5">
      <rect id="사각형_809" data-name="사각형 809" width="19" height="8.879" fill="none"/>
    </clipPath>
  </defs>
  <g id="솔루노트_Lite로고" data-name="솔루노트 Lite로고" transform="translate(0 2.597)">
    <rect id="영역" width="150" height="30" transform="translate(0 -2.597)" fill="none"/>
    <g id="그룹_75875" data-name="그룹 75875" transform="translate(0 -0.597)" clip-path="url(#clip-path)">
      <g id="그룹_75872" data-name="그룹 75872" transform="translate(0 0)">
        <g id="그룹_75871" data-name="그룹 75871" clip-path="url(#clip-path)">
          <g id="그룹_75870" data-name="그룹 75870" transform="translate(0 1.309)" opacity="0.6">
            <g id="그룹_75869" data-name="그룹 75869">
              <g id="그룹_75868" data-name="그룹 75868" clip-path="url(#clip-path-3)">
                <path id="패스_3546" data-name="패스 3546" d="M4.364,21.943l-2.618.769V3.511l2.618.77V2.845L0,1.33V24.894l4.364-1.516Z" transform="translate(0 -1.33)" fill="#fff"/>
              </g>
            </g>
          </g>
        </g>
      </g>
      <path id="패스_3547" data-name="패스 3547" d="M5.32,0V26.183l15.71-5.456V17.36H19.283v2.1l-.242.08v.02l-1.757.562L7.938,23.216V2.967l9.346,3.092,1.757.561v.02l.242.081v2.1H21.03V5.456Z" transform="translate(-0.083 0)" fill="#fff"/>
      <g id="그룹_75874" data-name="그룹 75874" transform="translate(0 0)">
        <g id="그룹_75873" data-name="그룹 75873" clip-path="url(#clip-path)">
          <path id="패스_3548" data-name="패스 3548" d="M24.614,13.26a1.047,1.047,0,1,1-1.047-1.047,1.047,1.047,0,0,1,1.047,1.047" transform="translate(-0.352 -0.191)" fill="#fff"/>
          <path id="패스_3549" data-name="패스 3549" d="M20.375,11.083a1.047,1.047,0,0,0-1.047,1.047v2.291h0a1.047,1.047,0,0,0,2.093,0h0V12.13a1.047,1.047,0,0,0-1.047-1.047" transform="translate(-0.302 -0.173)" fill="#fff"/>
          <path id="패스_3550" data-name="패스 3550" d="M17.183,9.753A1.047,1.047,0,0,0,16.136,10.8v4.887a1.047,1.047,0,1,0,2.095,0V10.8a1.047,1.047,0,0,0-1.047-1.047" transform="translate(-0.252 -0.152)" fill="#fff"/>
          <path id="패스_3551" data-name="패스 3551" d="M13.991,11.526a1.047,1.047,0,0,0-1.047,1.047v1.4a1.047,1.047,0,0,0,2.095,0v-1.4a1.047,1.047,0,0,0-1.047-1.047" transform="translate(-0.202 -0.18)" fill="#fff"/>
          <path id="패스_3552" data-name="패스 3552" d="M33.734,19.192A3.826,3.826,0,0,1,32.117,18a3.325,3.325,0,0,1-.674-1.832l-.009-.12h1.547l.018.12a1.992,1.992,0,0,0,.508,1.07,2.657,2.657,0,0,0,1.1.7,4.67,4.67,0,0,0,1.579.245,4.266,4.266,0,0,0,1.547-.254A2.235,2.235,0,0,0,38.74,17.2a1.788,1.788,0,0,0,.357-1.109v-.008a1.641,1.641,0,0,0-.568-1.307A4.279,4.279,0,0,0,36.68,14L35.3,13.7a5.577,5.577,0,0,1-2.687-1.242,2.909,2.909,0,0,1-.873-2.2v-.009a3.057,3.057,0,0,1,.568-1.8,3.738,3.738,0,0,1,1.543-1.221,5.454,5.454,0,0,1,2.258-.443,5.177,5.177,0,0,1,2.167.434,3.811,3.811,0,0,1,1.527,1.209,3.32,3.32,0,0,1,.641,1.789l.009.129H38.907l-.017-.12a2.166,2.166,0,0,0-.465-1.084,2.383,2.383,0,0,0-.968-.688,3.7,3.7,0,0,0-1.389-.241,3.853,3.853,0,0,0-1.445.25,2.21,2.21,0,0,0-.959.7,1.688,1.688,0,0,0-.34,1.049v.009a1.566,1.566,0,0,0,.576,1.247,4.16,4.16,0,0,0,1.79.757l1.376.3a7.3,7.3,0,0,1,2.068.731,2.987,2.987,0,0,1,1.169,1.131,3.3,3.3,0,0,1,.374,1.621v.009a3.294,3.294,0,0,1-.554,1.909,3.548,3.548,0,0,1-1.583,1.247,6.962,6.962,0,0,1-4.808.022" transform="translate(-0.491 -0.106)" fill="#fff"/>
          <path id="패스_3553" data-name="패스 3553" d="M45.208,18.826a5.166,5.166,0,0,1-1.983-2.219,7.729,7.729,0,0,1-.7-3.406v-.017a7.661,7.661,0,0,1,.7-3.4,5.208,5.208,0,0,1,1.987-2.215,6.287,6.287,0,0,1,6.076,0,5.18,5.18,0,0,1,1.978,2.215,7.7,7.7,0,0,1,.7,3.4V13.2a7.729,7.729,0,0,1-.7,3.406A5.179,5.179,0,0,1,51.3,18.826a6.312,6.312,0,0,1-6.088,0m5.255-1.26a3.957,3.957,0,0,0,1.423-1.732,6.414,6.414,0,0,0,.5-2.632v-.017a6.392,6.392,0,0,0-.5-2.641,3.959,3.959,0,0,0-7.263,0,6.331,6.331,0,0,0-.507,2.645V13.2a6.336,6.336,0,0,0,.507,2.64,3.968,3.968,0,0,0,1.436,1.729,4.267,4.267,0,0,0,4.408,0" transform="translate(-0.665 -0.106)" fill="#fff"/>
          <path id="패스_3554" data-name="패스 3554" d="M56.464,7h1.548V18.012H64v1.393H56.464Z" transform="translate(-0.882 -0.109)" fill="#fff"/>
          <path id="패스_3555" data-name="패스 3555" d="M67.886,19.036a4.084,4.084,0,0,1-1.7-1.6,4.665,4.665,0,0,1-.594-2.377V6.995h1.547v7.956a3.428,3.428,0,0,0,.4,1.681,2.842,2.842,0,0,0,1.157,1.14,4.264,4.264,0,0,0,3.659,0,2.822,2.822,0,0,0,1.149-1.14,3.47,3.47,0,0,0,.4-1.681V6.995H75.45v8.059a4.692,4.692,0,0,1-.589,2.377,4.075,4.075,0,0,1-1.69,1.6,6.351,6.351,0,0,1-5.285,0" transform="translate(-1.025 -0.109)" fill="#fff"/>
          <path id="패스_3556" data-name="패스 3556" d="M82.263,7h2.271l6.742,9.71L89.1,15.062h1.092V7h2.589v12.41H90.528l-6.76-9.761,2.175,1.643H84.852v8.118H82.263Z" transform="translate(-1.285 -0.109)" fill="#fff"/>
          <path id="패스_3557" data-name="패스 3557" d="M97.809,18.84a5.243,5.243,0,0,1-2.077-2.22A7.467,7.467,0,0,1,95,13.2v-.018a7.4,7.4,0,0,1,.734-3.414,5.265,5.265,0,0,1,2.082-2.215,6.868,6.868,0,0,1,6.36,0,5.284,5.284,0,0,1,2.072,2.215,7.419,7.419,0,0,1,.731,3.41V13.2a7.441,7.441,0,0,1-.731,3.414,5.28,5.28,0,0,1-2.068,2.219,6.9,6.9,0,0,1-6.373,0m4.962-1.944a3.325,3.325,0,0,0,1.148-1.467,5.628,5.628,0,0,0,.4-2.227v-.018a5.6,5.6,0,0,0-.409-2.236,3.289,3.289,0,0,0-1.157-1.458,3.3,3.3,0,0,0-3.53,0,3.286,3.286,0,0,0-1.162,1.453,5.6,5.6,0,0,0-.409,2.24V13.2a5.6,5.6,0,0,0,.409,2.236A3.317,3.317,0,0,0,99.224,16.9a3.292,3.292,0,0,0,3.548,0" transform="translate(-1.484 -0.106)" fill="#fff"/>
          <path id="패스_3558" data-name="패스 3558" d="M111.483,9.137h-3.595V7h9.788V9.137h-3.595V19.406h-2.6Z" transform="translate(-1.686 -0.109)" fill="#fff"/>
          <path id="패스_3559" data-name="패스 3559" d="M119.648,7h8.221V9.136h-5.624v2.976h5.306v2.039h-5.306v3.114h5.624v2.141h-8.221Z" transform="translate(-1.869 -0.109)" fill="#fff"/>
        </g>
      </g>
    </g>
    <g id="light" transform="translate(131 3.403)">
      <path id="패스_3568" data-name="패스 3568" d="M1.363.947,0,8.78H4.079l.21-1.2H1.759L2.9.947Z" transform="translate(0 0)" fill="#fff"/>
      <g id="그룹_75878" data-name="그룹 75878" transform="translate(0 0)">
        <g id="그룹_75877" data-name="그룹 75877" clip-path="url(#clip-path-5)">
          <path id="패스_3569" data-name="패스 3569" d="M7.725,2.576l-1.1,6.2H5.049l1.1-6.2ZM6.482,1.624a.706.706,0,0,1-.225-.536A1.012,1.012,0,0,1,6.6.32,1.134,1.134,0,0,1,7.4,0a.812.812,0,0,1,.582.213.711.711,0,0,1,.224.538,1.016,1.016,0,0,1-.336.766,1.119,1.119,0,0,1-.795.319.819.819,0,0,1-.592-.213" transform="translate(0.09 0)" fill="#fff"/>
          <path id="패스_3570" data-name="패스 3570" d="M10.271,6.845a1.064,1.064,0,0,0-.011.179.371.371,0,0,0,.128.319.741.741,0,0,0,.432.1h.74L11.324,8.76h-1q-1.68,0-1.68-1.4a3.094,3.094,0,0,1,.045-.526l.527-2.99H8.48L8.7,2.557h.75l.269-1.534H11.3l-.269,1.534h1.378l-.225,1.288H10.8Z" transform="translate(0.152 0.019)" fill="#fff"/>
          <path id="패스_3571" data-name="패스 3571" d="M18.083,3.086a2.31,2.31,0,0,1,.694,1.763,3.229,3.229,0,0,1-.056.638,5.5,5.5,0,0,1-.146.582H14.041a1.563,1.563,0,0,0-.012.224,1.213,1.213,0,0,0,.342.913,1.242,1.242,0,0,0,.9.331,1.538,1.538,0,0,0,.812-.208,1.689,1.689,0,0,0,.554-.543h1.691a3.51,3.51,0,0,1-1.283,1.472,3.465,3.465,0,0,1-1.963.576,2.671,2.671,0,0,1-1.9-.671,2.383,2.383,0,0,1-.717-1.825,3.938,3.938,0,0,1,.067-.705,4.044,4.044,0,0,1,.689-1.691,3.535,3.535,0,0,1,1.293-1.12A3.681,3.681,0,0,1,16.2,2.43a2.629,2.629,0,0,1,1.881.656m-.9,1.775a1.054,1.054,0,0,0-.347-.84,1.329,1.329,0,0,0-.906-.3,1.661,1.661,0,0,0-1.064.375,1.973,1.973,0,0,0-.662,1.025h2.956a2.281,2.281,0,0,0,.022-.258" transform="translate(0.223 0.044)" fill="#fff"/>
        </g>
      </g>
    </g>
  </g>
</svg>
