<svg xmlns="http://www.w3.org/2000/svg" xmlns:xlink="http://www.w3.org/1999/xlink" width="230" height="40" viewBox="0 0 230 40">
  <defs>
    <clipPath id="clip-path">
      <rect id="사각형_811" data-name="사각형 811" width="229.209" height="40" fill="none"/>
    </clipPath>
  </defs>
  <g id="솔루노트Lite_로그인_로고_230x40" data-name="솔루노트Lite 로그인 로고 230x40" transform="translate(0.396)">
    <rect id="영역" width="230" height="40" transform="translate(-0.396)" fill="none"/>
    <g id="그룹_75881" data-name="그룹 75881">
      <g id="그룹_75880" data-name="그룹 75880" clip-path="url(#clip-path)">
        <path id="패스_3590" data-name="패스 3590" d="M202.258,7.56l-2.082,11.968h6.232l.32-1.834h-3.865L204.606,7.56Z" fill="#063286"/>
        <path id="패스_3591" data-name="패스 3591" d="M212.116,10.05l-1.681,9.471h-2.407l1.68-9.471Zm-1.9-1.456a1.076,1.076,0,0,1-.344-.818A1.544,1.544,0,0,1,210.4,6.6a1.734,1.734,0,0,1,1.223-.489,1.238,1.238,0,0,1,.889.325,1.087,1.087,0,0,1,.342.822,1.556,1.556,0,0,1-.513,1.171,1.712,1.712,0,0,1-1.215.487,1.254,1.254,0,0,1-.9-.326" fill="#063286"/>
        <path id="패스_3592" data-name="패스 3592" d="M216.1,16.6a1.669,1.669,0,0,0-.017.273.57.57,0,0,0,.2.488,1.136,1.136,0,0,0,.66.153h1.13l-.36,2.012h-1.528q-2.567,0-2.567-2.139a4.709,4.709,0,0,1,.069-.8l.8-4.568h-1.124l.336-1.966h1.146l.411-2.344h2.415l-.411,2.344h2.106l-.344,1.967h-2.115Z" fill="#063286"/>
        <path id="패스_3593" data-name="패스 3593" d="M228.144,10.9a3.53,3.53,0,0,1,1.06,2.694,4.895,4.895,0,0,1-.085.974,8.452,8.452,0,0,1-.223.89h-6.927a2.3,2.3,0,0,0-.019.342,1.856,1.856,0,0,0,.523,1.4,1.9,1.9,0,0,0,1.375.506,2.354,2.354,0,0,0,1.24-.318,2.574,2.574,0,0,0,.847-.83h2.583a5.357,5.357,0,0,1-1.96,2.249,5.289,5.289,0,0,1-3,.88,4.077,4.077,0,0,1-2.9-1.025,3.641,3.641,0,0,1-1.1-2.788,5.98,5.98,0,0,1,.1-1.077,6.164,6.164,0,0,1,1.053-2.584,5.4,5.4,0,0,1,1.975-1.711,5.619,5.619,0,0,1,2.576-.6,4.015,4.015,0,0,1,2.874,1m-1.375,2.712a1.611,1.611,0,0,0-.53-1.283,2.03,2.03,0,0,0-1.384-.459,2.538,2.538,0,0,0-1.626.573A3.012,3.012,0,0,0,222.215,14h4.516a3.239,3.239,0,0,0,.033-.394" fill="#063286"/>
        <path id="패스_3594" data-name="패스 3594" d="M50.827,29.137a5.83,5.83,0,0,1-2.47-1.82,5.065,5.065,0,0,1-1.031-2.8l-.014-.184h2.365l.026.184a3.058,3.058,0,0,0,.776,1.636,4.09,4.09,0,0,0,1.675,1.065,7.144,7.144,0,0,0,2.411.374A6.515,6.515,0,0,0,56.93,27.2a3.426,3.426,0,0,0,1.544-1.11,2.729,2.729,0,0,0,.545-1.695v-.013a2.507,2.507,0,0,0-.867-2,6.545,6.545,0,0,0-2.825-1.183l-2.1-.46a8.523,8.523,0,0,1-4.106-1.9,4.444,4.444,0,0,1-1.334-3.357v-.013a4.671,4.671,0,0,1,.867-2.753,5.712,5.712,0,0,1,2.359-1.866,8.331,8.331,0,0,1,3.449-.676,7.916,7.916,0,0,1,3.311.663A5.837,5.837,0,0,1,60.1,12.693a5.072,5.072,0,0,1,.979,2.733l.013.2H58.73l-.026-.184a3.3,3.3,0,0,0-.709-1.655,3.643,3.643,0,0,0-1.479-1.051,5.637,5.637,0,0,0-2.122-.368,5.886,5.886,0,0,0-2.207.381,3.365,3.365,0,0,0-1.465,1.064,2.576,2.576,0,0,0-.519,1.6v.013a2.39,2.39,0,0,0,.88,1.9,6.32,6.32,0,0,0,2.733,1.156l2.1.46a11.162,11.162,0,0,1,3.159,1.117,4.562,4.562,0,0,1,1.787,1.728,5.039,5.039,0,0,1,.572,2.477v.013a5.028,5.028,0,0,1-.848,2.917A5.428,5.428,0,0,1,58.172,29.1a10.647,10.647,0,0,1-7.345.033" fill="#063286"/>
        <path id="패스_3595" data-name="패스 3595" d="M68.091,28.579a7.9,7.9,0,0,1-3.029-3.39A11.817,11.817,0,0,1,64,19.986V19.96a11.705,11.705,0,0,1,1.071-5.2A7.937,7.937,0,0,1,68.1,11.38a9.6,9.6,0,0,1,9.283,0,7.922,7.922,0,0,1,3.022,3.383,11.775,11.775,0,0,1,1.064,5.2v.026a11.817,11.817,0,0,1-1.064,5.2,7.925,7.925,0,0,1-3.016,3.39,9.641,9.641,0,0,1-9.3,0m8.028-1.925a6.049,6.049,0,0,0,2.174-2.647,9.786,9.786,0,0,0,.762-4.021V19.96a9.77,9.77,0,0,0-.768-4.034,6.048,6.048,0,0,0-11.1-.006,9.675,9.675,0,0,0-.775,4.04v.026a9.691,9.691,0,0,0,.775,4.034,6.064,6.064,0,0,0,2.194,2.641,6.521,6.521,0,0,0,6.734-.007" fill="#063286"/>
        <path id="패스_3596" data-name="패스 3596" d="M84.954,10.5h2.365V27.33h9.145v2.129H84.954Z" fill="#063286"/>
        <path id="패스_3597" data-name="패스 3597" d="M102.186,28.894a6.265,6.265,0,0,1-2.595-2.451,7.133,7.133,0,0,1-.906-3.632V10.5h2.365V22.653a5.249,5.249,0,0,0,.61,2.569,4.348,4.348,0,0,0,1.768,1.741,6.515,6.515,0,0,0,5.59,0,4.309,4.309,0,0,0,1.755-1.741,5.3,5.3,0,0,0,.6-2.569V10.5h2.365V22.811a7.171,7.171,0,0,1-.9,3.632,6.231,6.231,0,0,1-2.582,2.451,9.7,9.7,0,0,1-8.074,0" fill="#063286"/>
        <path id="패스_3598" data-name="패스 3598" d="M123.753,10.5h3.469l10.3,14.834L134.2,22.824h1.668V10.5h3.955v18.96H136.38L126.052,14.546l3.325,2.509h-1.669v12.4h-3.955Z" fill="#063286"/>
        <path id="패스_3599" data-name="패스 3599" d="M147.2,28.6a7.989,7.989,0,0,1-3.173-3.389,11.405,11.405,0,0,1-1.116-5.223V19.96a11.329,11.329,0,0,1,1.123-5.217,8.046,8.046,0,0,1,3.179-3.383,10.491,10.491,0,0,1,9.716.007A8.065,8.065,0,0,1,160.1,14.75a11.326,11.326,0,0,1,1.117,5.21v.026A11.363,11.363,0,0,1,160.1,25.2a8.073,8.073,0,0,1-3.159,3.39,10.53,10.53,0,0,1-9.737.006m7.582-2.969a5.107,5.107,0,0,0,1.754-2.24,8.627,8.627,0,0,0,.617-3.4V19.96a8.579,8.579,0,0,0-.624-3.417,5.033,5.033,0,0,0-1.767-2.227,5.047,5.047,0,0,0-5.394,0,5.016,5.016,0,0,0-1.774,2.221,8.562,8.562,0,0,0-.624,3.423v.026a8.571,8.571,0,0,0,.624,3.416,5.076,5.076,0,0,0,1.767,2.234,5.037,5.037,0,0,0,5.421-.007" fill="#063286"/>
        <path id="패스_3600" data-name="패스 3600" d="M167.782,13.771H162.29V10.5h14.952v3.272H171.75V29.459h-3.968Z" fill="#063286"/>
        <path id="패스_3601" data-name="패스 3601" d="M179.974,10.5h12.561v3.272h-8.593v4.546h8.107v3.114h-8.107v4.756h8.593v3.272H179.974Z" fill="#063286"/>
        <path id="패스_3602" data-name="패스 3602" d="M6.667,33.492l-4,1.175V5.333l4,1.175V4.316L0,2V38l6.667-2.315Z" fill="#cc3485"/>
        <path id="패스_3603" data-name="패스 3603" d="M32,13.48V8.335L8,0V40l24-8.335V26.52H29.333v3.213l-.37.123v.03l-2.685.858L12,35.467V4.533L26.279,9.256l2.684.858v.03l.37.123V13.48Z" fill="#2880ff"/>
        <path id="패스_3604" data-name="패스 3604" d="M37.067,19.967a1.6,1.6,0,1,1-1.6-1.6,1.6,1.6,0,0,1,1.6,1.6" fill="#22bca2"/>
        <path id="패스_3605" data-name="패스 3605" d="M30.667,16.667a1.6,1.6,0,0,0-1.6,1.6v3.5h0a1.6,1.6,0,0,0,3.2,0h0v-3.5a1.6,1.6,0,0,0-1.6-1.6" fill="#22bca2"/>
        <path id="패스_3606" data-name="패스 3606" d="M25.867,14.667a1.6,1.6,0,0,0-1.6,1.6v7.467a1.6,1.6,0,1,0,3.2,0V16.267a1.6,1.6,0,0,0-1.6-1.6" fill="#22bca2"/>
        <path id="패스_3607" data-name="패스 3607" d="M21.067,17.333a1.6,1.6,0,0,0-1.6,1.6v2.133a1.6,1.6,0,1,0,3.2,0V18.933a1.6,1.6,0,0,0-1.6-1.6" fill="#22bca2"/>
      </g>
    </g>
  </g>
</svg>
