<svg id="솔루노트로고" xmlns="http://www.w3.org/2000/svg" xmlns:xlink="http://www.w3.org/1999/xlink" width="160" height="34" viewBox="0 0 160 34">
  <defs>
    <clipPath id="clip-path">
      <rect id="사각형_749" data-name="사각형 749" width="160" height="33.241" fill="none"/>
    </clipPath>
  </defs>
  <rect id="영역" width="160" height="34" fill="none"/>
  <g id="그룹_75814" data-name="그룹 75814">
    <g id="그룹_75813" data-name="그룹 75813" clip-path="url(#clip-path)">
      <path id="패스_3350" data-name="패스 3350" d="M133.028,43.757a4.848,4.848,0,0,1-2.053-1.512,4.218,4.218,0,0,1-.857-2.326l-.011-.153h1.965l.022.153a2.539,2.539,0,0,0,.645,1.359,3.4,3.4,0,0,0,1.392.885,5.936,5.936,0,0,0,2,.311,5.427,5.427,0,0,0,1.965-.322,2.849,2.849,0,0,0,1.283-.923,2.271,2.271,0,0,0,.453-1.408v-.011a2.084,2.084,0,0,0-.72-1.66,5.438,5.438,0,0,0-2.348-.983l-1.747-.382a7.084,7.084,0,0,1-3.412-1.578,3.691,3.691,0,0,1-1.108-2.789v-.011a3.879,3.879,0,0,1,.721-2.288,4.747,4.747,0,0,1,1.96-1.551,6.923,6.923,0,0,1,2.866-.562,6.572,6.572,0,0,1,2.752.551,4.851,4.851,0,0,1,1.938,1.534,4.219,4.219,0,0,1,.813,2.271l.011.164H139.6l-.022-.153a2.75,2.75,0,0,0-.59-1.376,3.03,3.03,0,0,0-1.228-.873,4.7,4.7,0,0,0-1.763-.306,4.893,4.893,0,0,0-1.835.317,2.8,2.8,0,0,0-1.218.885,2.141,2.141,0,0,0-.432,1.332v.011a1.987,1.987,0,0,0,.732,1.583,5.259,5.259,0,0,0,2.271.961l1.747.382a9.255,9.255,0,0,1,2.626.928,3.79,3.79,0,0,1,1.485,1.436,4.186,4.186,0,0,1,.475,2.058v.011a4.18,4.18,0,0,1-.7,2.424,4.5,4.5,0,0,1-2.009,1.583,8.846,8.846,0,0,1-6.1.027" transform="translate(-90.79 -19.543)" fill="#063286"/>
      <path id="패스_3351" data-name="패스 3351" d="M179.4,43.292a6.557,6.557,0,0,1-2.517-2.817A9.815,9.815,0,0,1,176,36.151V36.13a9.728,9.728,0,0,1,.89-4.318A6.6,6.6,0,0,1,179.407,29a7.983,7.983,0,0,1,7.714,0,6.578,6.578,0,0,1,2.511,2.812,9.779,9.779,0,0,1,.884,4.318v.022a9.816,9.816,0,0,1-.884,4.324,6.581,6.581,0,0,1-2.506,2.817,8.015,8.015,0,0,1-7.731,0m6.672-1.6a5.022,5.022,0,0,0,1.807-2.2,8.139,8.139,0,0,0,.633-3.341V36.13a8.109,8.109,0,0,0-.639-3.352,5.026,5.026,0,0,0-9.221-.005A8.041,8.041,0,0,0,178,36.13v.022a8.048,8.048,0,0,0,.644,3.352,5.044,5.044,0,0,0,1.823,2.195,5.421,5.421,0,0,0,5.6-.006" transform="translate(-122.812 -19.543)" fill="#063286"/>
      <path id="패스_3352" data-name="패스 3352" d="M233.625,28.873h1.965V42.86h7.6v1.769h-9.565Z" transform="translate(-163.026 -20.148)" fill="#063286"/>
      <path id="패스_3353" data-name="패스 3353" d="M274.293,44.159a5.2,5.2,0,0,1-2.156-2.036,5.928,5.928,0,0,1-.753-3.019V28.873h1.965v10.1a4.36,4.36,0,0,0,.508,2.135,3.605,3.605,0,0,0,1.469,1.447,5.408,5.408,0,0,0,4.646,0,3.578,3.578,0,0,0,1.458-1.447,4.395,4.395,0,0,0,.5-2.135v-10.1H283.9V39.1a5.965,5.965,0,0,1-.748,3.019A5.177,5.177,0,0,1,281,44.159a8.058,8.058,0,0,1-6.71,0" transform="translate(-189.374 -20.148)" fill="#063286"/>
      <path id="패스_3354" data-name="패스 3354" d="M340.321,28.873H343.2l8.56,12.327L349,39.115h1.386V28.873h3.287V44.629h-2.861l-8.582-12.393,2.763,2.085h-1.387V44.629h-3.287Z" transform="translate(-237.48 -20.148)" fill="#063286"/>
      <path id="패스_3355" data-name="패스 3355" d="M396.566,43.283a6.65,6.65,0,0,1-2.637-2.817,9.484,9.484,0,0,1-.928-4.34V36.1a9.4,9.4,0,0,1,.934-4.335,6.69,6.69,0,0,1,2.642-2.812,8.72,8.72,0,0,1,8.074.005,6.71,6.71,0,0,1,2.631,2.812,9.419,9.419,0,0,1,.928,4.329v.022a9.451,9.451,0,0,1-.928,4.335,6.707,6.707,0,0,1-2.626,2.817,8.752,8.752,0,0,1-8.091.005m6.3-2.468a4.236,4.236,0,0,0,1.457-1.861,7.156,7.156,0,0,0,.513-2.828V36.1a7.119,7.119,0,0,0-.519-2.839,4.177,4.177,0,0,0-1.468-1.851,4.189,4.189,0,0,0-4.483,0,4.166,4.166,0,0,0-1.474,1.845,7.112,7.112,0,0,0-.519,2.844v.022a7.118,7.118,0,0,0,.519,2.839,4.219,4.219,0,0,0,1.468,1.856,4.183,4.183,0,0,0,4.5-.006" transform="translate(-274.241 -19.517)" fill="#063286"/>
      <path id="패스_3356" data-name="패스 3356" d="M450.861,31.592H446.3V28.873h12.426v2.719h-4.564V44.629h-3.3Z" transform="translate(-311.431 -20.148)" fill="#063286"/>
      <path id="패스_3357" data-name="패스 3357" d="M494.93,28.873h10.438v2.719h-7.141V35.37h6.737v2.588h-6.737V41.91h7.141v2.719H494.93Z" transform="translate(-345.368 -20.148)" fill="#063286"/>
    </g>
  </g>
  <path id="패스_3358" data-name="패스 3358" d="M0,35.417l5.539-1.924V31.671l-3.324.976V8.27l3.324.977V7.424L0,5.5Z" transform="translate(0 -3.838)" fill="#cc3485"/>
  <path id="패스_3359" data-name="패스 3359" d="M22,0V33.241l19.942-6.927V22.039H39.726v2.67l-.307.1v.025l-2.232.713L25.324,29.473V3.768L37.188,7.692l2.231.713V8.43l.307.1V11.2h2.216V6.927Z" transform="translate(-15.353 0)" fill="#2880ff"/>
  <g id="그룹_75816" data-name="그룹 75816">
    <g id="그룹_75815" data-name="그룹 75815" clip-path="url(#clip-path)">
      <path id="패스_3360" data-name="패스 3360" d="M95.792,51.838a1.33,1.33,0,1,1-1.33-1.33,1.33,1.33,0,0,1,1.33,1.33" transform="translate(-64.989 -35.245)" fill="#22bca2"/>
      <path id="패스_3361" data-name="패스 3361" d="M81.263,45.833a1.33,1.33,0,0,0-1.33,1.33v2.909h0a1.328,1.328,0,0,0,2.656,0h0V47.163a1.33,1.33,0,0,0-1.33-1.33" transform="translate(-55.778 -31.983)" fill="#22bca2"/>
      <path id="패스_3362" data-name="패스 3362" d="M68.063,40.333a1.33,1.33,0,0,0-1.33,1.33v6.2a1.33,1.33,0,0,0,2.659,0v-6.2a1.33,1.33,0,0,0-1.33-1.33" transform="translate(-46.567 -28.145)" fill="#22bca2"/>
      <path id="패스_3363" data-name="패스 3363" d="M54.863,47.667A1.33,1.33,0,0,0,53.533,49V50.77a1.33,1.33,0,1,0,2.659,0V49a1.33,1.33,0,0,0-1.33-1.33" transform="translate(-37.356 -33.263)" fill="#22bca2"/>
    </g>
  </g>
</svg>
