<svg xmlns="http://www.w3.org/2000/svg" xmlns:xlink="http://www.w3.org/1999/xlink" width="140" height="30" viewBox="0 0 140 30">
  <defs>
    <clipPath id="clip-path">
      <rect id="사각형_798" data-name="사각형 798" width="140" height="29.091" fill="none"/>
    </clipPath>
    <clipPath id="clip-path-2">
      <rect id="사각형_796" data-name="사각형 796" width="140" height="29.091" transform="translate(0 0)" fill="none"/>
    </clipPath>
    <clipPath id="clip-path-3">
      <rect id="사각형_795" data-name="사각형 795" width="4.849" height="26.182" transform="translate(0 1.455)" fill="none"/>
    </clipPath>
  </defs>
  <g id="솔루노트로고" transform="translate(0 0.454)">
    <rect id="영역" width="140" height="30" transform="translate(0 -0.454)" fill="none"/>
    <g id="그룹_75858" data-name="그룹 75858" clip-path="url(#clip-path)">
      <g id="그룹_75855" data-name="그룹 75855">
        <g id="그룹_75854" data-name="그룹 75854" clip-path="url(#clip-path-2)">
          <g id="그룹_75853" data-name="그룹 75853" opacity="0.6">
            <g id="그룹_75852" data-name="그룹 75852">
              <g id="그룹_75851" data-name="그룹 75851" clip-path="url(#clip-path-3)">
                <path id="패스_3445" data-name="패스 3445" d="M4.849,24.358l-2.909.855V3.879l2.909.855V3.139L0,1.455V27.637l4.849-1.684Z" fill="#fff"/>
              </g>
            </g>
          </g>
        </g>
      </g>
      <path id="패스_3446" data-name="패스 3446" d="M5.819,0V29.092l17.455-6.063V19.288h-1.94v2.337l-.269.088v.023l-1.953.624L8.727,25.795V3.3L19.112,6.732l1.952.624v.022l.269.089V9.8h1.94V6.062Z" fill="#fff"/>
      <g id="그룹_75857" data-name="그룹 75857">
        <g id="그룹_75856" data-name="그룹 75856" clip-path="url(#clip-path-2)">
          <path id="패스_3447" data-name="패스 3447" d="M26.958,14.522a1.163,1.163,0,1,1-1.164-1.164,1.164,1.164,0,0,1,1.164,1.164" fill="#fff"/>
          <path id="패스_3448" data-name="패스 3448" d="M22.3,12.121a1.164,1.164,0,0,0-1.164,1.164V15.83h0a1.162,1.162,0,0,0,2.324,0h0V13.285A1.164,1.164,0,0,0,22.3,12.121" fill="#fff"/>
          <path id="패스_3449" data-name="패스 3449" d="M18.813,10.667a1.164,1.164,0,0,0-1.165,1.164v5.43a1.164,1.164,0,1,0,2.328,0v-5.43a1.164,1.164,0,0,0-1.163-1.164" fill="#fff"/>
          <path id="패스_3450" data-name="패스 3450" d="M15.321,12.606a1.164,1.164,0,0,0-1.164,1.164v1.551a1.164,1.164,0,1,0,2.328,0V13.77a1.164,1.164,0,0,0-1.164-1.164" fill="#fff"/>
          <path id="패스_3451" data-name="패스 3451" d="M36.937,21.206a4.239,4.239,0,0,1-1.8-1.324,3.7,3.7,0,0,1-.75-2.035l-.009-.134H36.1l.019.134a2.22,2.22,0,0,0,.564,1.19,2.985,2.985,0,0,0,1.218.774,5.2,5.2,0,0,0,1.754.272,4.747,4.747,0,0,0,1.72-.282,2.5,2.5,0,0,0,1.123-.807,1.992,1.992,0,0,0,.4-1.233v-.01a1.823,1.823,0,0,0-.63-1.452,4.763,4.763,0,0,0-2.055-.86L38.681,15.1a6.188,6.188,0,0,1-2.986-1.381,3.227,3.227,0,0,1-.97-2.441v-.01a3.393,3.393,0,0,1,.63-2,4.169,4.169,0,0,1,1.716-1.357,6.054,6.054,0,0,1,2.508-.492,5.75,5.75,0,0,1,2.408.483,4.251,4.251,0,0,1,1.7,1.343,3.7,3.7,0,0,1,.711,1.987l.01.144h-1.72l-.019-.134a2.4,2.4,0,0,0-.516-1.2,2.662,2.662,0,0,0-1.075-.765,4.121,4.121,0,0,0-1.543-.267,4.276,4.276,0,0,0-1.606.277,2.443,2.443,0,0,0-1.065.774,1.871,1.871,0,0,0-.378,1.166v.009a1.739,1.739,0,0,0,.64,1.386,4.618,4.618,0,0,0,1.988.841l1.529.334a8.119,8.119,0,0,1,2.3.812,3.319,3.319,0,0,1,1.3,1.257,3.666,3.666,0,0,1,.416,1.8v.01a3.652,3.652,0,0,1-.617,2.121,3.945,3.945,0,0,1-1.758,1.386,7.748,7.748,0,0,1-5.342.024" fill="#fff"/>
          <path id="패스_3452" data-name="패스 3452" d="M49.493,20.8a5.738,5.738,0,0,1-2.2-2.465,8.594,8.594,0,0,1-.775-3.785v-.019a8.518,8.518,0,0,1,.779-3.779A5.776,5.776,0,0,1,49.5,8.291a6.99,6.99,0,0,1,6.751,0,5.76,5.76,0,0,1,2.2,2.461,8.561,8.561,0,0,1,.774,3.779v.019a8.594,8.594,0,0,1-.774,3.785A5.757,5.757,0,0,1,56.259,20.8a7.012,7.012,0,0,1-6.766,0m5.839-1.4a4.388,4.388,0,0,0,1.581-1.925,7.12,7.12,0,0,0,.555-2.925v-.019a7.093,7.093,0,0,0-.56-2.933,4.4,4.4,0,0,0-8.069,0,7.039,7.039,0,0,0-.564,2.938v.019a7.045,7.045,0,0,0,.564,2.934,4.408,4.408,0,0,0,1.595,1.921,4.747,4.747,0,0,0,4.9-.005" fill="#fff"/>
          <path id="패스_3453" data-name="패스 3453" d="M61.758,7.651h1.72V19.892h6.651V21.44H61.758Z" fill="#fff"/>
          <path id="패스_3454" data-name="패스 3454" d="M74.29,21.029A4.551,4.551,0,0,1,72.4,19.247a5.184,5.184,0,0,1-.66-2.642V7.651h1.721V16.49a3.814,3.814,0,0,0,.444,1.868,3.154,3.154,0,0,0,1.285,1.266,4.732,4.732,0,0,0,4.066,0,3.137,3.137,0,0,0,1.276-1.266,3.845,3.845,0,0,0,.44-1.868V7.651h1.72V16.6a5.222,5.222,0,0,1-.655,2.642,4.528,4.528,0,0,1-1.878,1.782,7.054,7.054,0,0,1-5.872,0" fill="#fff"/>
          <path id="패스_3455" data-name="패스 3455" d="M89.976,7.651H92.5L99.991,18.44l-2.418-1.825h1.214V7.651h2.876V21.44h-2.5L91.648,10.594l2.418,1.825H92.852V21.44H89.976Z" fill="#fff"/>
          <path id="패스_3456" data-name="패스 3456" d="M107.027,20.815a5.823,5.823,0,0,1-2.307-2.466,8.292,8.292,0,0,1-.812-3.8v-.019a8.24,8.24,0,0,1,.816-3.794,5.859,5.859,0,0,1,2.313-2.461,7.638,7.638,0,0,1,7.067,0,5.878,5.878,0,0,1,2.3,2.461,8.248,8.248,0,0,1,.812,3.789v.019a8.278,8.278,0,0,1-.812,3.794,5.878,5.878,0,0,1-2.3,2.465,6.888,6.888,0,0,1-3.541.87,6.96,6.96,0,0,1-3.541-.865m5.514-2.16a3.706,3.706,0,0,0,1.276-1.629,6.275,6.275,0,0,0,.449-2.475v-.019a6.229,6.229,0,0,0-.454-2.485,3.647,3.647,0,0,0-1.285-1.619,3.665,3.665,0,0,0-3.923,0,3.65,3.65,0,0,0-1.29,1.614,6.224,6.224,0,0,0-.454,2.49v.019a6.224,6.224,0,0,0,.454,2.484A3.694,3.694,0,0,0,108.6,18.66a3.386,3.386,0,0,0,1.969.573,3.351,3.351,0,0,0,1.973-.578" fill="#fff"/>
          <path id="패스_3457" data-name="패스 3457" d="M122,10.031H118V7.652h10.874v2.379h-3.994v11.41H122Z" fill="#fff"/>
          <path id="패스_3458" data-name="패스 3458" d="M130.865,7.651H140V10.03H133.75v3.307h5.9V15.6h-5.9v3.459H140V21.44h-9.135Z" fill="#fff"/>
        </g>
      </g>
    </g>
  </g>
</svg>
