<svg xmlns="http://www.w3.org/2000/svg" width="16" height="16" viewBox="0 0 16 16">
  <g id="출처음성아이콘" transform="translate(0 0)">
    <rect id="영역" width="16" height="16" transform="translate(0 0)" fill="none"/>
    <g id="마이크아이콘" transform="translate(3 0)">
      <path id="패스_2915" data-name="패스 2915" d="M6.593,10.667A2.633,2.633,0,0,1,4,8V2.667A2.633,2.633,0,0,1,6.593,0,2.633,2.633,0,0,1,9.185,2.667V8a2.633,2.633,0,0,1-2.593,2.667m0-9.333A1.317,1.317,0,0,0,5.3,2.667V8A1.3,1.3,0,1,0,7.889,8V2.667a1.317,1.317,0,0,0-1.3-1.333" transform="translate(-1.408 0)" fill="#555"/>
      <path id="패스_2916" data-name="패스 2916" d="M5.185,16.333A5.267,5.267,0,0,1,0,11V9.667A.658.658,0,0,1,.648,9a.658.658,0,0,1,.648.667V11a3.95,3.95,0,0,0,3.889,4,3.95,3.95,0,0,0,3.889-4V9.667a.648.648,0,1,1,1.3,0V11a5.267,5.267,0,0,1-5.185,5.333" transform="translate(0 -3)" fill="#555"/>
      <path id="패스_2917" data-name="패스 2917" d="M7.648,22A.657.657,0,0,1,7,21.333V18.667a.648.648,0,1,1,1.3,0v2.667A.657.657,0,0,1,7.648,22" transform="translate(-2.463 -6)" fill="#555"/>
    </g>
  </g>
</svg>
