<svg xmlns="http://www.w3.org/2000/svg" xmlns:xlink="http://www.w3.org/1999/xlink" width="250" height="16" viewBox="0 0 250 16">
  <defs>
    <clipPath id="clip-path">
      <rect id="사각형_801" data-name="사각형 801" width="250" height="15.11" fill="none"/>
    </clipPath>
  </defs>
  <g id="시스템텍스트_영문" data-name="시스템텍스트 영문" transform="translate(0 0.484)">
    <rect id="영역" width="250" height="16" transform="translate(0 -0.484)" fill="none"/>
    <path id="패스_3517" data-name="패스 3517" d="M8.266.453,5.118,9.648H4.993L1.86.453H0L4.063,11.765H6.055L10.125.453Z" fill="#fff"/>
    <g id="그룹_75867" data-name="그룹 75867">
      <g id="그룹_75866" data-name="그룹 75866" clip-path="url(#clip-path)">
        <path id="패스_3518" data-name="패스 3518" d="M12.072,11.382A3.646,3.646,0,0,1,10.68,9.846a5.09,5.09,0,0,1-.492-2.287,5.125,5.125,0,0,1,.492-2.3,3.652,3.652,0,0,1,1.393-1.537,3.945,3.945,0,0,1,2.088-.546,3.908,3.908,0,0,1,2.076.546,3.609,3.609,0,0,1,1.382,1.537,5.192,5.192,0,0,1,.485,2.3,5.156,5.156,0,0,1-.485,2.287,3.6,3.6,0,0,1-1.382,1.537,3.917,3.917,0,0,1-2.076.546,3.954,3.954,0,0,1-2.088-.546m3.345-1.245a2.4,2.4,0,0,0,.757-1.076,4.324,4.324,0,0,0,.25-1.511,4.349,4.349,0,0,0-.25-1.514,2.386,2.386,0,0,0-.757-1.081,1.958,1.958,0,0,0-1.257-.4,1.986,1.986,0,0,0-1.264.4,2.414,2.414,0,0,0-.773,1.081,4.235,4.235,0,0,0-.258,1.514,4.211,4.211,0,0,0,.258,1.511,2.432,2.432,0,0,0,.773,1.076,1.985,1.985,0,0,0,1.264.4,1.958,1.958,0,0,0,1.257-.4" transform="translate(-0.01 -0.003)" fill="#fff"/>
        <path id="패스_3519" data-name="패스 3519" d="M20.077,1.838a.982.982,0,0,1-.383-.36.939.939,0,0,1-.14-.5.917.917,0,0,1,.14-.5,1.039,1.039,0,0,1,.383-.355A1.065,1.065,0,0,1,20.6,0a1.1,1.1,0,0,1,.538.133,1,1,0,0,1,.379.355.94.94,0,0,1,.136.5.963.963,0,0,1-.136.5.951.951,0,0,1-.379.36,1.128,1.128,0,0,1-.538.129,1.1,1.1,0,0,1-.523-.129m-.3,1.44h1.662v8.476H19.773Z" transform="translate(-0.019)" fill="#fff"/>
        <path id="패스_3520" data-name="패스 3520" d="M24.939,11.367a3.68,3.68,0,0,1-1.382-1.553,5.114,5.114,0,0,1-.48-2.256,5.09,5.09,0,0,1,.492-2.283,3.718,3.718,0,0,1,1.382-1.548,3.819,3.819,0,0,1,2.068-.554,4.109,4.109,0,0,1,1.732.351,3.022,3.022,0,0,1,1.226,1,3.134,3.134,0,0,1,.554,1.5H28.908a1.9,1.9,0,0,0-.332-.737,1.763,1.763,0,0,0-.628-.526,1.935,1.935,0,0,0-.89-.195,2.073,2.073,0,0,0-1.206.359,2.339,2.339,0,0,0-.808,1.022,3.923,3.923,0,0,0-.289,1.569A4.044,4.044,0,0,0,25.041,9.1a2.374,2.374,0,0,0,.8,1.042,2.037,2.037,0,0,0,1.218.368,2.124,2.124,0,0,0,.855-.168,1.655,1.655,0,0,0,.643-.5,1.859,1.859,0,0,0,.352-.781h1.623a3.189,3.189,0,0,1-.542,1.476,3.087,3.087,0,0,1-1.206,1.018,4.244,4.244,0,0,1-3.844-.191" transform="translate(-0.022 -0.003)" fill="#fff"/>
        <path id="패스_3521" data-name="패스 3521" d="M33.627,11.39a3.574,3.574,0,0,1-1.409-1.522,5.055,5.055,0,0,1-.492-2.288,5.173,5.173,0,0,1,.492-2.306A3.684,3.684,0,0,1,33.6,3.721a3.82,3.82,0,0,1,2.052-.55,4.026,4.026,0,0,1,1.881.442,3.249,3.249,0,0,1,1.366,1.4,5.057,5.057,0,0,1,.516,2.416V8.01H32.663V6.77h5.12a2.452,2.452,0,0,0-.262-1.151,1.937,1.937,0,0,0-.745-.792,2.116,2.116,0,0,0-1.108-.289,2.171,2.171,0,0,0-1.194.328,2.254,2.254,0,0,0-.8.882,2.537,2.537,0,0,0-.289,1.186V7.9a3.172,3.172,0,0,0,.3,1.436,2.1,2.1,0,0,0,.842.913,2.669,2.669,0,0,0,2.073.184,2.206,2.206,0,0,0,.624-.328,1.4,1.4,0,0,0,.4-.473h1.693a2.8,2.8,0,0,1-.67,1.2,3.293,3.293,0,0,1-1.222.8,4.509,4.509,0,0,1-1.65.289,4.158,4.158,0,0,1-2.143-.538" transform="translate(-0.031 -0.003)" fill="#fff"/>
        <path id="패스_3522" data-name="패스 3522" d="M45.117.453h4.027a4.818,4.818,0,0,1,2.174.442,2.967,2.967,0,0,1,1.316,1.245A3.839,3.839,0,0,1,53.07,4a3.694,3.694,0,0,1-.437,1.83A2.969,2.969,0,0,1,51.31,7.057a4.872,4.872,0,0,1-2.173.437H46.085V6h2.888a3.333,3.333,0,0,0,1.35-.234,1.582,1.582,0,0,0,.769-.679A2.216,2.216,0,0,0,51.338,4a2.387,2.387,0,0,0-.246-1.128,1.59,1.59,0,0,0-.777-.706,3.27,3.27,0,0,0-1.35-.242H46.834v9.826H45.117Zm8.375,11.3H51.533L48.8,6.658h1.9Z" transform="translate(-0.044 0)" fill="#fff"/>
        <path id="패스_3523" data-name="패스 3523" d="M56.252,11.39a3.574,3.574,0,0,1-1.409-1.522,5.055,5.055,0,0,1-.492-2.288,5.173,5.173,0,0,1,.492-2.306,3.684,3.684,0,0,1,1.382-1.553,3.82,3.82,0,0,1,2.052-.55,4.026,4.026,0,0,1,1.881.442,3.249,3.249,0,0,1,1.366,1.4,5.057,5.057,0,0,1,.516,2.416V8.01H55.288V6.77h5.12a2.452,2.452,0,0,0-.262-1.151,1.937,1.937,0,0,0-.745-.792,2.116,2.116,0,0,0-1.108-.289,2.171,2.171,0,0,0-1.194.328,2.254,2.254,0,0,0-.8.882,2.537,2.537,0,0,0-.289,1.186V7.9a3.172,3.172,0,0,0,.3,1.436,2.1,2.1,0,0,0,.842.913,2.669,2.669,0,0,0,2.073.184,2.206,2.206,0,0,0,.624-.328,1.4,1.4,0,0,0,.4-.473h1.693a2.8,2.8,0,0,1-.67,1.2,3.293,3.293,0,0,1-1.222.8,4.509,4.509,0,0,1-1.65.289,4.158,4.158,0,0,1-2.143-.538" transform="translate(-0.053 -0.003)" fill="#fff"/>
        <path id="패스_3524" data-name="패스 3524" d="M65.174,11.367a3.68,3.68,0,0,1-1.382-1.553,5.114,5.114,0,0,1-.48-2.256A5.09,5.09,0,0,1,63.8,5.275a3.718,3.718,0,0,1,1.382-1.548,3.819,3.819,0,0,1,2.068-.554,4.109,4.109,0,0,1,1.732.351,3.022,3.022,0,0,1,1.226,1,3.134,3.134,0,0,1,.554,1.5H69.143a1.9,1.9,0,0,0-.332-.737,1.763,1.763,0,0,0-.628-.526,1.935,1.935,0,0,0-.89-.195,2.073,2.073,0,0,0-1.206.359,2.339,2.339,0,0,0-.808,1.022,3.923,3.923,0,0,0-.289,1.569A4.044,4.044,0,0,0,65.276,9.1a2.374,2.374,0,0,0,.8,1.042,2.037,2.037,0,0,0,1.218.368,2.124,2.124,0,0,0,.855-.168,1.655,1.655,0,0,0,.643-.5,1.859,1.859,0,0,0,.352-.781h1.623a3.189,3.189,0,0,1-.542,1.476,3.087,3.087,0,0,1-1.206,1.018,4.244,4.244,0,0,1-3.844-.191" transform="translate(-0.061 -0.003)" fill="#fff"/>
        <path id="패스_3525" data-name="패스 3525" d="M73.845,11.382a3.646,3.646,0,0,1-1.393-1.537,5.09,5.09,0,0,1-.492-2.287,5.125,5.125,0,0,1,.492-2.3,3.652,3.652,0,0,1,1.393-1.537,4.239,4.239,0,0,1,4.164,0,3.609,3.609,0,0,1,1.382,1.537,5.192,5.192,0,0,1,.485,2.3,5.156,5.156,0,0,1-.485,2.287,3.6,3.6,0,0,1-1.382,1.537,4.239,4.239,0,0,1-4.164,0m3.345-1.245a2.4,2.4,0,0,0,.757-1.076,4.324,4.324,0,0,0,.25-1.511,4.349,4.349,0,0,0-.25-1.514,2.386,2.386,0,0,0-.757-1.081,1.958,1.958,0,0,0-1.257-.4,1.986,1.986,0,0,0-1.264.4A2.415,2.415,0,0,0,73.9,6.037a4.235,4.235,0,0,0-.258,1.514A4.211,4.211,0,0,0,73.9,9.061a2.432,2.432,0,0,0,.773,1.076,1.985,1.985,0,0,0,1.264.4,1.958,1.958,0,0,0,1.257-.4" transform="translate(-0.07 -0.003)" fill="#fff"/>
        <path id="패스_3526" data-name="패스 3526" d="M83.232,14.813a2.957,2.957,0,0,1-1.284-.87,2.41,2.41,0,0,1-.542-1.358H83.1a1.286,1.286,0,0,0,.652.89,2.773,2.773,0,0,0,1.37.3,2.447,2.447,0,0,0,1.592-.461,1.738,1.738,0,0,0,.561-1.428V10.22h-.1a3.563,3.563,0,0,1-.477.674,2.246,2.246,0,0,1-.765.516,2.972,2.972,0,0,1-1.217.223,3.423,3.423,0,0,1-1.815-.492A3.359,3.359,0,0,1,81.629,9.7a5.13,5.13,0,0,1-.465-2.271,5.238,5.238,0,0,1,.461-2.283,3.3,3.3,0,0,1,3.106-1.971,2.8,2.8,0,0,1,1.21.234,2.2,2.2,0,0,1,.726.508,6.224,6.224,0,0,1,.522.734h.1V3.281h1.638v8.664a3.032,3.032,0,0,1-.492,1.76,2.916,2.916,0,0,1-1.35,1.061,5.282,5.282,0,0,1-1.99.348,5.346,5.346,0,0,1-1.866-.3m3.052-4.9a2.077,2.077,0,0,0,.757-.956A3.891,3.891,0,0,0,87.3,7.465a4.115,4.115,0,0,0-.258-1.519,2.172,2.172,0,0,0-.753-1,2.034,2.034,0,0,0-1.206-.351,1.975,1.975,0,0,0-1.21.371,2.286,2.286,0,0,0-.757,1.022,4,4,0,0,0-.258,1.48,3.837,3.837,0,0,0,.258,1.464,2.141,2.141,0,0,0,.757.975,2.064,2.064,0,0,0,1.21.348,2.1,2.1,0,0,0,1.2-.336" transform="translate(-0.079 -0.003)" fill="#fff"/>
        <path id="패스_3527" data-name="패스 3527" d="M92.631,11.758H90.969V3.282h1.592V4.663h.109a2.4,2.4,0,0,1,.94-1.1,2.911,2.911,0,0,1,1.565-.391,3.03,3.03,0,0,1,1.518.364,2.439,2.439,0,0,1,1,1.081,3.9,3.9,0,0,1,.356,1.748v5.393H96.386V6.56a2.385,2.385,0,0,0-.211-1.046,1.5,1.5,0,0,0-.608-.667,1.912,1.912,0,0,0-.968-.23,2.08,2.08,0,0,0-1.023.246,1.7,1.7,0,0,0-.694.725,2.446,2.446,0,0,0-.25,1.144Z" transform="translate(-0.088 -0.003)" fill="#fff"/>
        <path id="패스_3528" data-name="패스 3528" d="M100.4,1.838a.972.972,0,0,1-.382-.36.931.931,0,0,1-.141-.5.909.909,0,0,1,.141-.5A1.028,1.028,0,0,1,100.4.133,1.068,1.068,0,0,1,100.921,0a1.1,1.1,0,0,1,.538.133,1,1,0,0,1,.379.355.932.932,0,0,1,.137.5.968.968,0,0,1-.515.855,1.126,1.126,0,0,1-.538.129,1.1,1.1,0,0,1-.523-.129m-.3,1.44h1.662v8.476h-1.662Z" transform="translate(-0.097)" fill="#fff"/>
        <path id="패스_3529" data-name="패스 3529" d="M107.737,4.606H103.1V3.279h4.637ZM106.02,1.25V9.265a1.466,1.466,0,0,0,.133.7.737.737,0,0,0,.351.336,1.336,1.336,0,0,0,.523.093c.25,0,.527-.01.835-.031v1.437a6.672,6.672,0,0,1-1.031.07,3.014,3.014,0,0,1-1.245-.254,2.091,2.091,0,0,1-.905-.765,2.2,2.2,0,0,1-.34-1.245V1.25Z" transform="translate(-0.1 -0.001)" fill="#fff"/>
        <path id="패스_3530" data-name="패스 3530" d="M109.694,1.838a.972.972,0,0,1-.382-.36.931.931,0,0,1-.141-.5.909.909,0,0,1,.141-.5,1.028,1.028,0,0,1,.382-.355A1.065,1.065,0,0,1,110.218,0a1.1,1.1,0,0,1,.538.133,1,1,0,0,1,.379.355.931.931,0,0,1,.136.5.965.965,0,0,1-.515.855,1.126,1.126,0,0,1-.538.129,1.1,1.1,0,0,1-.523-.129m-.3,1.44h1.662v8.476h-1.662Z" transform="translate(-0.106)" fill="#fff"/>
        <path id="패스_3531" data-name="패스 3531" d="M114.58,11.382a3.646,3.646,0,0,1-1.393-1.537,5.09,5.09,0,0,1-.492-2.287,5.125,5.125,0,0,1,.492-2.3,3.652,3.652,0,0,1,1.393-1.537,4.239,4.239,0,0,1,4.164,0,3.609,3.609,0,0,1,1.382,1.537,5.192,5.192,0,0,1,.485,2.3,5.156,5.156,0,0,1-.485,2.287,3.6,3.6,0,0,1-1.382,1.537,4.239,4.239,0,0,1-4.164,0m3.345-1.245a2.4,2.4,0,0,0,.757-1.076,4.324,4.324,0,0,0,.25-1.511,4.349,4.349,0,0,0-.25-1.514,2.386,2.386,0,0,0-.757-1.081,1.958,1.958,0,0,0-1.257-.4,1.986,1.986,0,0,0-1.264.4,2.415,2.415,0,0,0-.773,1.081,4.235,4.235,0,0,0-.258,1.514,4.211,4.211,0,0,0,.258,1.511,2.432,2.432,0,0,0,.773,1.076,1.985,1.985,0,0,0,1.264.4,1.958,1.958,0,0,0,1.257-.4" transform="translate(-0.109 -0.003)" fill="#fff"/>
        <path id="패스_3532" data-name="패스 3532" d="M123.943,11.758h-1.662V3.282h1.592V4.663h.109a2.4,2.4,0,0,1,.94-1.1,2.911,2.911,0,0,1,1.565-.391,3.03,3.03,0,0,1,1.518.364,2.439,2.439,0,0,1,1,1.081,3.9,3.9,0,0,1,.356,1.748v5.393H127.7V6.56a2.385,2.385,0,0,0-.211-1.046,1.5,1.5,0,0,0-.608-.667,1.912,1.912,0,0,0-.968-.23,2.08,2.08,0,0,0-1.023.246,1.7,1.7,0,0,0-.694.725,2.446,2.446,0,0,0-.25,1.144Z" transform="translate(-0.118 -0.003)" fill="#fff"/>
        <path id="패스_3533" data-name="패스 3533" d="M137.529.453l3.591,8.758h.133l3.59-8.758h2.084v11.3h-1.638V3.591h-.11l-3.325,8.148H140.5l-3.326-8.148h-.093v8.164h-1.639V.453Z" transform="translate(-0.131 0)" fill="#fff"/>
        <path id="패스_3534" data-name="패스 3534" d="M149.421,1.838a.982.982,0,0,1-.383-.36.931.931,0,0,1-.141-.5.909.909,0,0,1,.141-.5,1.039,1.039,0,0,1,.383-.355A1.064,1.064,0,0,1,149.944,0a1.092,1.092,0,0,1,.538.133,1,1,0,0,1,.379.355.932.932,0,0,1,.137.5.955.955,0,0,1-.137.5.945.945,0,0,1-.379.36,1.123,1.123,0,0,1-.538.129,1.094,1.094,0,0,1-.523-.129m-.3,1.44h1.662v8.476h-1.662Z" transform="translate(-0.144)" fill="#fff"/>
        <path id="패스_3535" data-name="패스 3535" d="M154.475,11.758h-1.662V3.282h1.592V4.663h.109a2.4,2.4,0,0,1,.94-1.1,2.911,2.911,0,0,1,1.565-.391,3.03,3.03,0,0,1,1.518.364,2.439,2.439,0,0,1,1,1.081,3.9,3.9,0,0,1,.356,1.748v5.393H158.23V6.56a2.386,2.386,0,0,0-.211-1.046,1.5,1.5,0,0,0-.608-.667,1.912,1.912,0,0,0-.968-.23,2.08,2.08,0,0,0-1.023.246,1.7,1.7,0,0,0-.694.725,2.446,2.446,0,0,0-.25,1.144Z" transform="translate(-0.148 -0.003)" fill="#fff"/>
        <path id="패스_3536" data-name="패스 3536" d="M167.315,3.281h1.654v8.476h-1.623V10.29h-.093a2.689,2.689,0,0,1-.964,1.143,2.741,2.741,0,0,1-1.565.434,2.811,2.811,0,0,1-1.452-.367,2.512,2.512,0,0,1-.979-1.089,3.907,3.907,0,0,1-.356-1.744V3.281H163.6v5.19a2.173,2.173,0,0,0,.215.988,1.586,1.586,0,0,0,.608.659,1.721,1.721,0,0,0,.894.234,2.027,2.027,0,0,0,.952-.242,1.9,1.9,0,0,0,.753-.726,2.192,2.192,0,0,0,.293-1.155Z" transform="translate(-0.157 -0.003)" fill="#fff"/>
        <path id="패스_3537" data-name="패스 3537" d="M174.964,4.606h-4.636V3.279h4.636ZM173.247,1.25V9.265a1.466,1.466,0,0,0,.133.7.737.737,0,0,0,.351.336,1.336,1.336,0,0,0,.523.093c.25,0,.527-.01.835-.031v1.437a6.672,6.672,0,0,1-1.031.07,3.014,3.014,0,0,1-1.245-.254,2.091,2.091,0,0,1-.905-.765,2.2,2.2,0,0,1-.34-1.245V1.25Z" transform="translate(-0.165 -0.001)" fill="#fff"/>
        <path id="패스_3538" data-name="패스 3538" d="M178.041,11.39a3.574,3.574,0,0,1-1.409-1.522,5.055,5.055,0,0,1-.492-2.288,5.173,5.173,0,0,1,.492-2.306,3.684,3.684,0,0,1,1.382-1.553,3.82,3.82,0,0,1,2.052-.55,4.027,4.027,0,0,1,1.881.442,3.249,3.249,0,0,1,1.366,1.4,5.057,5.057,0,0,1,.515,2.416V8.01h-6.751V6.77h5.12a2.452,2.452,0,0,0-.262-1.151,1.938,1.938,0,0,0-.745-.792,2.116,2.116,0,0,0-1.108-.289,2.171,2.171,0,0,0-1.194.328,2.254,2.254,0,0,0-.8.882,2.537,2.537,0,0,0-.289,1.186V7.9a3.171,3.171,0,0,0,.3,1.436,2.1,2.1,0,0,0,.842.913,2.669,2.669,0,0,0,2.073.184,2.206,2.206,0,0,0,.624-.328,1.4,1.4,0,0,0,.4-.473h1.693a2.8,2.8,0,0,1-.67,1.2,3.293,3.293,0,0,1-1.222.8,4.509,4.509,0,0,1-1.65.289,4.158,4.158,0,0,1-2.143-.538" transform="translate(-0.171 -0.003)" fill="#fff"/>
        <path id="패스_3539" data-name="패스 3539" d="M189.719,4.771a1.843,1.843,0,0,0-1.081-.289,2.3,2.3,0,0,0-.839.144,1.4,1.4,0,0,0-.585.407.907.907,0,0,0-.215.589.822.822,0,0,0,.328.647,2.364,2.364,0,0,0,1.007.422L189.684,7a3.589,3.589,0,0,1,1.748.831,1.959,1.959,0,0,1,.577,1.464,2.325,2.325,0,0,1-.418,1.363,2.737,2.737,0,0,1-1.2.932,5.315,5.315,0,0,1-3.6.043,2.713,2.713,0,0,1-1.167-.85,2.781,2.781,0,0,1-.542-1.339H186.8a1.288,1.288,0,0,0,.55.85,2.091,2.091,0,0,0,1.175.289,2.927,2.927,0,0,0,.932-.136,1.358,1.358,0,0,0,.624-.4.929.929,0,0,0,.223-.616.868.868,0,0,0-.316-.686,2.2,2.2,0,0,0-1-.414l-1.32-.3a3.488,3.488,0,0,1-1.74-.851,1.97,1.97,0,0,1-.585-1.468,2.239,2.239,0,0,1,.41-1.327,2.662,2.662,0,0,1,1.152-.9,4.314,4.314,0,0,1,1.724-.321,4.11,4.11,0,0,1,1.623.3,2.638,2.638,0,0,1,1.109.847,2.5,2.5,0,0,1,.476,1.272h-1.592a1.3,1.3,0,0,0-.526-.819" transform="translate(-0.179 -0.003)" fill="#fff"/>
        <path id="패스_3540" data-name="패스 3540" d="M203.486,2.537a1.788,1.788,0,0,0-.8-.561,3.309,3.309,0,0,0-1.159-.188A3.125,3.125,0,0,0,200.333,2a1.816,1.816,0,0,0-.8.589,1.406,1.406,0,0,0-.281.862,1.229,1.229,0,0,0,.585,1.093,4.89,4.89,0,0,0,1.475.608l1.085.289a6.007,6.007,0,0,1,2.338,1.077,2.543,2.543,0,0,1,.925,2.116,3.033,3.033,0,0,1-.5,1.705,3.278,3.278,0,0,1-1.445,1.178,5.466,5.466,0,0,1-2.252.426,5.532,5.532,0,0,1-2.193-.4,3.351,3.351,0,0,1-1.46-1.148,3.312,3.312,0,0,1-.577-1.767h1.717a1.743,1.743,0,0,0,.4.991,2.107,2.107,0,0,0,.89.608,3.772,3.772,0,0,0,2.506-.023,2.035,2.035,0,0,0,.889-.644,1.525,1.525,0,0,0,.321-.956,1.2,1.2,0,0,0-.266-.788,1.969,1.969,0,0,0-.722-.526,7.751,7.751,0,0,0-1.143-.395l-1.343-.351a5,5,0,0,1-2.178-1.12,2.5,2.5,0,0,1-.756-1.877,2.823,2.823,0,0,1,.527-1.693A3.48,3.48,0,0,1,199.517.707,4.94,4.94,0,0,1,201.566.3a4.839,4.839,0,0,1,2.018.4,3.409,3.409,0,0,1,1.393,1.112,2.835,2.835,0,0,1,.53,1.616h-1.662a1.742,1.742,0,0,0-.359-.89" transform="translate(-0.191 0)" fill="#fff"/>
        <path id="패스_3541" data-name="패스 3541" d="M207.53,14.911v-1.4l.3.015c.109.011.261.016.453.016a1.968,1.968,0,0,0,.534-.062.9.9,0,0,0,.422-.309,2.362,2.362,0,0,0,.379-.745l.219-.538-3.114-8.6h1.794l2.131,6.565h.094l2.139-6.565h1.794l-3.5,9.6a3.406,3.406,0,0,1-1.053,1.538,2.692,2.692,0,0,1-1.7.522q-.5,0-.89-.031" transform="translate(-0.2 -0.003)" fill="#fff"/>
        <path id="패스_3542" data-name="패스 3542" d="M220.272,4.771a1.843,1.843,0,0,0-1.081-.289,2.3,2.3,0,0,0-.839.144,1.4,1.4,0,0,0-.585.407.907.907,0,0,0-.215.589.823.823,0,0,0,.328.647,2.364,2.364,0,0,0,1.007.422L220.238,7a3.589,3.589,0,0,1,1.748.831,1.959,1.959,0,0,1,.577,1.464,2.325,2.325,0,0,1-.418,1.363,2.737,2.737,0,0,1-1.2.932,5.315,5.315,0,0,1-3.6.043,2.713,2.713,0,0,1-1.167-.85,2.781,2.781,0,0,1-.542-1.339h1.709a1.288,1.288,0,0,0,.55.85,2.091,2.091,0,0,0,1.175.289,2.927,2.927,0,0,0,.932-.136,1.358,1.358,0,0,0,.624-.4.928.928,0,0,0,.223-.616.868.868,0,0,0-.316-.686,2.2,2.2,0,0,0-1-.414l-1.32-.3a3.488,3.488,0,0,1-1.74-.851,1.97,1.97,0,0,1-.585-1.468,2.239,2.239,0,0,1,.41-1.327,2.662,2.662,0,0,1,1.152-.9,4.314,4.314,0,0,1,1.724-.321,4.11,4.11,0,0,1,1.623.3,2.638,2.638,0,0,1,1.109.847,2.5,2.5,0,0,1,.476,1.272H220.8a1.3,1.3,0,0,0-.526-.819" transform="translate(-0.209 -0.003)" fill="#fff"/>
        <path id="패스_3543" data-name="패스 3543" d="M228.16,4.606h-4.637V3.279h4.637ZM226.442,1.25V9.265a1.466,1.466,0,0,0,.133.7.737.737,0,0,0,.351.336,1.336,1.336,0,0,0,.523.093c.25,0,.527-.01.835-.031v1.437a6.672,6.672,0,0,1-1.031.07,3.014,3.014,0,0,1-1.245-.254,2.091,2.091,0,0,1-.905-.765,2.2,2.2,0,0,1-.34-1.245V1.25Z" transform="translate(-0.217 -0.001)" fill="#fff"/>
        <path id="패스_3544" data-name="패스 3544" d="M231.236,11.39a3.574,3.574,0,0,1-1.409-1.522,5.055,5.055,0,0,1-.492-2.288,5.173,5.173,0,0,1,.492-2.306,3.684,3.684,0,0,1,1.382-1.553,3.82,3.82,0,0,1,2.052-.55,4.026,4.026,0,0,1,1.881.442,3.249,3.249,0,0,1,1.366,1.4,5.057,5.057,0,0,1,.516,2.416V8.01h-6.751V6.77h5.12a2.452,2.452,0,0,0-.262-1.151,1.937,1.937,0,0,0-.745-.792,2.116,2.116,0,0,0-1.108-.289,2.171,2.171,0,0,0-1.194.328,2.254,2.254,0,0,0-.8.882,2.537,2.537,0,0,0-.289,1.186V7.9a3.171,3.171,0,0,0,.3,1.436,2.1,2.1,0,0,0,.842.913,2.669,2.669,0,0,0,2.073.184,2.206,2.206,0,0,0,.624-.328,1.4,1.4,0,0,0,.4-.473h1.693a2.8,2.8,0,0,1-.67,1.2,3.293,3.293,0,0,1-1.222.8,4.509,4.509,0,0,1-1.65.289,4.158,4.158,0,0,1-2.143-.538" transform="translate(-0.222 -0.003)" fill="#fff"/>
        <path id="패스_3545" data-name="패스 3545" d="M238.688,3.281h1.591V4.663h.109a2.293,2.293,0,0,1,.874-1.1,2.543,2.543,0,0,1,1.429-.39,2.8,2.8,0,0,1,1,.171,2.083,2.083,0,0,1,.768.508,2.464,2.464,0,0,1,.508.812h.087a2.371,2.371,0,0,1,.576-.8,2.56,2.56,0,0,1,.87-.512,3.262,3.262,0,0,1,1.1-.179,2.764,2.764,0,0,1,1.374.328,2.272,2.272,0,0,1,.917.975,3.5,3.5,0,0,1,.332,1.608v5.673h-1.67V6.239a1.581,1.581,0,0,0-.445-1.23,1.636,1.636,0,0,0-1.14-.4,1.777,1.777,0,0,0-.913.223,1.488,1.488,0,0,0-.585.616,1.95,1.95,0,0,0-.2.909v5.4h-1.655V6.122a1.608,1.608,0,0,0-.191-.792,1.313,1.313,0,0,0-.542-.534,1.683,1.683,0,0,0-.8-.188,1.628,1.628,0,0,0-.858.242,1.763,1.763,0,0,0-.636.679,2.054,2.054,0,0,0-.238,1v5.229h-1.661Z" transform="translate(-0.231 -0.003)" fill="#fff"/>
      </g>
    </g>
  </g>
</svg>
