<svg xmlns="http://www.w3.org/2000/svg" xmlns:xlink="http://www.w3.org/1999/xlink" width="160" height="16" viewBox="0 0 160 16">
  <defs>
    <clipPath id="clip-path">
      <rect id="사각형_752" data-name="사각형 752" width="160" height="16" transform="translate(0 -0.945)" fill="none"/>
    </clipPath>
  </defs>
  <g id="음성_인식_회의록_시스템" data-name="음성 인식 회의록 시스템" transform="translate(0 0.944)">
    <g id="그룹_75818" data-name="그룹 75818" transform="translate(0 0.001)" clip-path="url(#clip-path)">
      <path id="패스_3372" data-name="패스 3372" d="M12.267,8.339H1.278a2.608,2.608,0,0,0-.4.034,1.757,1.757,0,0,0-.432.089,2.678,2.678,0,0,0-.447.2V6.616a2.062,2.062,0,0,0,.447.22,1.753,1.753,0,0,0,.432.088,1.935,1.935,0,0,0,.4.026q.185-.008.35-.008H12.267q.144,0,.333.008a1.928,1.928,0,0,0,.4-.026,1.728,1.728,0,0,0,.432-.088,2.354,2.354,0,0,0,.462-.22V8.665a3.138,3.138,0,0,0-.462-.2A1.732,1.732,0,0,0,13,8.373a2.6,2.6,0,0,0-.4-.034ZM3.19,14.6a1.417,1.417,0,0,1-1.464-1.465V11.3a4.312,4.312,0,0,0-.1-.9,1.49,1.49,0,0,0-.358-.724H12.234V14.6ZM1.628,2.989a2.043,2.043,0,0,1,.422-1.27A3.332,3.332,0,0,1,3.206.793,6.245,6.245,0,0,1,4.914.206,10.711,10.711,0,0,1,6.995.012,10.729,10.729,0,0,1,9.078.206a6.277,6.277,0,0,1,1.708.587,3.339,3.339,0,0,1,1.155.926,2.043,2.043,0,0,1,.422,1.27,2.078,2.078,0,0,1-.413,1.284,3.4,3.4,0,0,1-1.147.945,6.135,6.135,0,0,1-1.7.561,11.4,11.4,0,0,1-2.108.186,11.168,11.168,0,0,1-2.081-.186,6.383,6.383,0,0,1-1.708-.561A3.484,3.484,0,0,1,2.05,4.273a2.06,2.06,0,0,1-.422-1.284M3.611,13.172h6.751V11.09H3.611Zm6.8-10.183q0-.718-.975-1.187a5.594,5.594,0,0,0-2.441-.473A5.37,5.37,0,0,0,4.589,1.8c-.63.313-.943.709-.943,1.187,0,.5.313.9.943,1.2a5.556,5.556,0,0,0,2.406.455,5.788,5.788,0,0,0,2.441-.455q.976-.455.975-1.2" transform="translate(0 0.004)" fill="#fff"/>
      <path id="패스_3373" data-name="패스 3373" d="M14.731,1.426v-.2A1.594,1.594,0,0,0,14.715,1a1.482,1.482,0,0,0-.091-.237,1.1,1.1,0,0,0-.169-.251h2.505a.746.746,0,0,0-.244.47,3.987,3.987,0,0,0-.033.441v.537a4.451,4.451,0,0,0,1.122,3.1,5.909,5.909,0,0,0,2.9,1.732L19.513,7.931a6.812,6.812,0,0,1-1.09-.479,9.319,9.319,0,0,1-1.057-.675,7.424,7.424,0,0,1-.911-.831,4.8,4.8,0,0,1-.7-.96,6.182,6.182,0,0,1-1.707,1.928,9.09,9.09,0,0,1-2.229,1.244l-1.14-1.074a7.4,7.4,0,0,0,2.954-2,4.608,4.608,0,0,0,1.1-3.123ZM14,11.788A2.355,2.355,0,0,1,14.4,10.43a3.376,3.376,0,0,1,1.107-1A5.668,5.668,0,0,1,17.121,8.8a8.469,8.469,0,0,1,1.955-.22,8.771,8.771,0,0,1,2.008.22,5.894,5.894,0,0,1,1.635.626,3.288,3.288,0,0,1,1.1,1,2.38,2.38,0,0,1,.4,1.358,2.408,2.408,0,0,1-.4,1.375,3.316,3.316,0,0,1-1.1,1,5.764,5.764,0,0,1-1.635.617,9.094,9.094,0,0,1-2.008.211,8.781,8.781,0,0,1-1.955-.211,5.544,5.544,0,0,1-1.609-.617,3.406,3.406,0,0,1-1.107-1A2.382,2.382,0,0,1,14,11.788m8.28,0a1.184,1.184,0,0,0-.252-.724,2.192,2.192,0,0,0-.69-.577,3.894,3.894,0,0,0-1.01-.39,5.156,5.156,0,0,0-1.251-.146,4.266,4.266,0,0,0-2.23.527,1.53,1.53,0,0,0-.878,1.311,1.5,1.5,0,0,0,.878,1.318,4.432,4.432,0,0,0,2.23.5,5.856,5.856,0,0,0,1.251-.13,3.578,3.578,0,0,0,1.01-.374,2.228,2.228,0,0,0,.69-.577,1.21,1.21,0,0,0,.252-.74M20.294,4.11q-.293,0-.643.024a2.325,2.325,0,0,0-.659.137V2.532a1.912,1.912,0,0,0,.659.145c.233.012.447.018.643.018h1.838V1.6a1.761,1.761,0,0,0-.05-.415,1.452,1.452,0,0,0-.137-.432,1.568,1.568,0,0,0-.3-.413h2.9a1.431,1.431,0,0,0-.319.413,1.58,1.58,0,0,0-.137.432,1.5,1.5,0,0,0-.039.415c.005.136.007.258.007.366v5.4c0,.142,0,.27-.007.384a1.867,1.867,0,0,0,.007.317,2.8,2.8,0,0,0,.049.293,1.283,1.283,0,0,0,.114.308H21.968a1.871,1.871,0,0,0,.1-.308c.02-.1.038-.2.049-.293a2.882,2.882,0,0,0,.016-.317V4.11Z" transform="translate(3.797 0.119)" fill="#fff"/>
      <path id="패스_3374" data-name="패스 3374" d="M25.116,4.305a3.631,3.631,0,0,1,.342-1.57,4.149,4.149,0,0,1,.911-1.261,4.518,4.518,0,0,1,1.309-.83A4.018,4.018,0,0,1,29.233.336a3.955,3.955,0,0,1,1.544.309,4.3,4.3,0,0,1,1.286.83,4.2,4.2,0,0,1,.887,1.261,3.706,3.706,0,0,1,.333,1.57A3.8,3.8,0,0,1,32.95,5.9a4.165,4.165,0,0,1-.887,1.269,4.049,4.049,0,0,1-2.83,1.139,4.112,4.112,0,0,1-1.555-.3,4.252,4.252,0,0,1-1.309-.839A4.119,4.119,0,0,1,25.458,5.9a3.718,3.718,0,0,1-.342-1.594m6.264.016a2.843,2.843,0,0,0-.6-1.822,1.888,1.888,0,0,0-1.552-.748,1.914,1.914,0,0,0-1.578.756,2.817,2.817,0,0,0-.6,1.814,2.914,2.914,0,0,0,.6,1.863A1.879,1.879,0,0,0,29.2,6.94a1.92,1.92,0,0,0,1.578-.756,2.9,2.9,0,0,0,.6-1.863m-3.5,8.9V11a1.773,1.773,0,0,0-.05-.416,1.469,1.469,0,0,0-.138-.43,1.5,1.5,0,0,0-.3-.416h2.879a1.442,1.442,0,0,0-.317.416,1.51,1.51,0,0,0-.138.43,1.564,1.564,0,0,0-.039.416c.005.134.008.256.008.365v1.708h6.8q.2,0,.382.008a1.647,1.647,0,0,0,.366-.024,1.93,1.93,0,0,0,.351-.065,1.62,1.62,0,0,0,.366-.163v1.936a1.93,1.93,0,0,0-.366-.145,1.726,1.726,0,0,0-.351-.066,2.053,2.053,0,0,0-.366-.033H29.183a1.249,1.249,0,0,1-1.3-1.3m9.856-3.709q0,.211-.008.382a2.035,2.035,0,0,0,.008.319,2.792,2.792,0,0,0,.049.291,1.394,1.394,0,0,0,.114.309H35.689a2.129,2.129,0,0,0,.1-.309c.02-.1.037-.2.047-.291a2.92,2.92,0,0,0,.016-.319V1.613A1.85,1.85,0,0,0,35.8,1.2a1.586,1.586,0,0,0-.137-.431,1.558,1.558,0,0,0-.3-.415h2.863a1.362,1.362,0,0,0-.316.415,1.507,1.507,0,0,0-.14.431,1.566,1.566,0,0,0-.041.415q.008.2.008.366Z" transform="translate(8.931 0.119)" fill="#fff"/>
      <path id="패스_3375" data-name="패스 3375" d="M39.7,1.426v-.2A1.612,1.612,0,0,0,39.686,1,1.845,1.845,0,0,0,39.6.766a1.223,1.223,0,0,0-.172-.251h2.505a.743.743,0,0,0-.244.472,3.974,3.974,0,0,0-.033.439v.537a4.451,4.451,0,0,0,1.122,3.1,5.9,5.9,0,0,0,2.9,1.734L44.485,7.933a6.742,6.742,0,0,1-1.089-.48,8.86,8.86,0,0,1-1.059-.675,7.425,7.425,0,0,1-.911-.83,4.752,4.752,0,0,1-.7-.96A6.269,6.269,0,0,1,39.02,6.916,9.118,9.118,0,0,1,36.79,8.16L35.653,7.087a7.41,7.41,0,0,0,2.951-2,4.609,4.609,0,0,0,1.1-3.123Zm9.238,11.68q0,.211-.008.39a1.513,1.513,0,0,0,.026.358,1.889,1.889,0,0,0,.064.35,1.3,1.3,0,0,0,.164.348H46.812a1.7,1.7,0,0,0,.145-.348,1.9,1.9,0,0,0,.065-.35,1.923,1.923,0,0,0,.034-.366v-3H39.613a2.038,2.038,0,0,0-.365.033,1.888,1.888,0,0,0-.351.065,1.72,1.72,0,0,0-.35.146V8.811a1.343,1.343,0,0,0,.35.163,1.888,1.888,0,0,0,.351.065,1.635,1.635,0,0,0,.365.024q.187-.008.4-.008h8.931Zm.018-6.1c0,.141,0,.268-.01.382a1.857,1.857,0,0,0,.01.317c.011.1.027.2.047.291a1.336,1.336,0,0,0,.114.31H46.908a1.846,1.846,0,0,0,.1-.31,2.66,2.66,0,0,0,.05-.291,2.892,2.892,0,0,0,.015-.317V1.6a1.767,1.767,0,0,0-.049-.415,1.531,1.531,0,0,0-.138-.431,1.5,1.5,0,0,0-.3-.415h2.863a1.436,1.436,0,0,0-.317.415,1.531,1.531,0,0,0-.138.431,1.621,1.621,0,0,0-.041.415c.005.136.01.258.01.366Z" transform="translate(12.677 0.119)" fill="#fff"/>
      <path id="패스_3376" data-name="패스 3376" d="M57.52,3.009a2.981,2.981,0,0,1,1.139,1.228,3.175,3.175,0,0,1,.375,1.391,2.828,2.828,0,0,1-.245,1.155,3.6,3.6,0,0,1-.649.992,4.211,4.211,0,0,1-.994.756,4.121,4.121,0,0,1-1.236.447l.016,1.4h1.9a12.717,12.717,0,0,0,1.61-.065A9.947,9.947,0,0,0,61.018,10V1.716A1.918,1.918,0,0,0,60.97,1.3a1.58,1.58,0,0,0-.14-.431,1.544,1.544,0,0,0-.3-.415h2.847a1.406,1.406,0,0,0-.317.415,1.49,1.49,0,0,0-.138.431,1.508,1.508,0,0,0-.039.415c.005.137.008.258.008.367V13.176q0,.179-.008.358a1.5,1.5,0,0,0,.023.357,1.258,1.258,0,0,0,.091.377,1.655,1.655,0,0,0,.22.373H60.691a1.432,1.432,0,0,0,.213-.373,2.193,2.193,0,0,0,.1-.377c.011-.118.016-.237.016-.357V11.371a4.341,4.341,0,0,1-.66.179c-.264.054-.549.1-.851.146s-.615.073-.929.089-.607.019-.878.009H51.812c-.228,0-.484.009-.766.031a2.9,2.9,0,0,0-.862.211v-1.9a2.461,2.461,0,0,0,.862.22c.282.016.538.024.766.024h2.243V8.963a4.318,4.318,0,0,1-1.2-.464,3.735,3.735,0,0,1-.943-.756,3.37,3.37,0,0,1-.634-.975,2.892,2.892,0,0,1-.228-1.14,3.525,3.525,0,0,1,.342-1.407,2.617,2.617,0,0,1,1.074-1.212H51.64a1.925,1.925,0,0,0-.366.034,1.787,1.787,0,0,0-.35.064,1.679,1.679,0,0,0-.348.146V1.383a1.236,1.236,0,0,0,.348.163,1.9,1.9,0,0,0,.35.065,1.641,1.641,0,0,0,.366.024c.125,0,.258-.007.4-.007h2.016V.9a1.245,1.245,0,0,0-.033-.268,1.043,1.043,0,0,0-.089-.293,2.02,2.02,0,0,0-.2-.342H56.3a1.56,1.56,0,0,0-.22.342,1.036,1.036,0,0,0-.088.293A.865.865,0,0,0,55.967.9c.005.081.008.161.008.236v.489h1.806c.132,0,.258,0,.382.007a1.642,1.642,0,0,0,.366-.024,1.894,1.894,0,0,0,.35-.065,1.529,1.529,0,0,0,.366-.163V3.253a2.186,2.186,0,0,0-.366-.146,1.786,1.786,0,0,0-.35-.064,1.926,1.926,0,0,0-.366-.034H57.52Zm-2.505,4.75a2.107,2.107,0,0,0,1.627-.691,2.338,2.338,0,0,0,.634-1.635,2.437,2.437,0,0,0-.634-1.684,2.218,2.218,0,0,0-2.53-.512,2.18,2.18,0,0,0-.706.521,2.2,2.2,0,0,0-.472.756,2.582,2.582,0,0,0-.164.919,2.466,2.466,0,0,0,.164.895,2.2,2.2,0,0,0,.472.748,2.2,2.2,0,0,0,1.609.683" transform="translate(17.844 -0.001)" fill="#fff"/>
      <path id="패스_3377" data-name="패스 3377" d="M62.911,11.593h-.348a2.6,2.6,0,0,0-.4.033,1.835,1.835,0,0,0-.432.089,2.631,2.631,0,0,0-.447.2V9.836a2.093,2.093,0,0,0,.447.22,1.765,1.765,0,0,0,.432.088,1.942,1.942,0,0,0,.4.026c.123-.005.24-.008.348-.008h5.971c.575,0,1.114-.011,1.625-.033a6.526,6.526,0,0,0,1.547-.26V1.6A1.851,1.851,0,0,0,72,1.182a1.444,1.444,0,0,0-.137-.431,1.56,1.56,0,0,0-.3-.415h2.83a1.378,1.378,0,0,0-.315.415,1.5,1.5,0,0,0-.141.431A1.614,1.614,0,0,0,73.9,1.6q.008.2.008.366V13.057q0,.179-.008.358a1.666,1.666,0,0,0,.023.357,1.34,1.34,0,0,0,.091.377,1.655,1.655,0,0,0,.22.373H71.728a1.517,1.517,0,0,0,.213-.373,2.318,2.318,0,0,0,.095-.377c.011-.119.019-.239.019-.357V11.17a8.244,8.244,0,0,1-1.644.342q-.815.081-1.642.081ZM61.95,4.452a3.912,3.912,0,0,1,.335-1.61,4.149,4.149,0,0,1,.9-1.3A4.253,4.253,0,0,1,64.5.669a4,4,0,0,1,3.122,0,4.257,4.257,0,0,1,1.311.87,4.172,4.172,0,0,1,.9,1.3,3.911,3.911,0,0,1,.333,1.61,3.94,3.94,0,0,1-.333,1.625,4.143,4.143,0,0,1-2.214,2.165,4.1,4.1,0,0,1-3.122,0,4.146,4.146,0,0,1-2.212-2.165,3.941,3.941,0,0,1-.335-1.625m6.3.016a2.957,2.957,0,0,0-.611-1.9A1.925,1.925,0,0,0,66.049,1.8a1.85,1.85,0,0,0-1.536.773,3.009,3.009,0,0,0-.592,1.9,3.508,3.508,0,0,0,.153,1.049,2.888,2.888,0,0,0,.431.87,1.994,1.994,0,0,0,.667.586,1.816,1.816,0,0,0,.877.211,1.857,1.857,0,0,0,.887-.211,2.128,2.128,0,0,0,.691-.586,2.784,2.784,0,0,0,.455-.87,3.347,3.347,0,0,0,.164-1.049" transform="translate(21.791 0.119)" fill="#fff"/>
      <path id="패스_3378" data-name="패스 3378" d="M83.021,5.157q.2,0,.382.008a1.635,1.635,0,0,0,.365-.024,1.893,1.893,0,0,0,.35-.065,1.559,1.559,0,0,0,.366-.163V6.865a2.139,2.139,0,0,0-.366-.146,1.893,1.893,0,0,0-.35-.065,2.039,2.039,0,0,0-.365-.033H80.109V7.646H84.29q.146,0,.333.008a2.021,2.021,0,0,0,.4-.024,1.785,1.785,0,0,0,.431-.089,2.253,2.253,0,0,0,.464-.22v2.1a2.968,2.968,0,0,0-.464-.2,1.785,1.785,0,0,0-.431-.089,2.6,2.6,0,0,0-.4-.033H73.3a2.6,2.6,0,0,0-.4.033,1.807,1.807,0,0,0-.432.089,2.493,2.493,0,0,0-.447.2V7.32a1.945,1.945,0,0,0,.447.22,1.807,1.807,0,0,0,.432.089,2.022,2.022,0,0,0,.4.024c.126-.005.243-.008.351-.008h4.522V6.621H75.164A1.421,1.421,0,0,1,73.7,5.157V2.831H82.32V1.79H74.7a2.042,2.042,0,0,0-.366.033,1.854,1.854,0,0,0-.35.065,1.728,1.728,0,0,0-.351.146V.228a1.349,1.349,0,0,0,.351.163,1.854,1.854,0,0,0,.35.065A1.641,1.641,0,0,0,74.7.48c.125-.005.256-.008.4-.008h9.078V4.148H75.57V5.157ZM84.176,13.1q0,.211-.008.39a1.62,1.62,0,0,0,.024.359,1.889,1.889,0,0,0,.064.35,1.346,1.346,0,0,0,.164.348H82.045a1.7,1.7,0,0,0,.145-.348,1.894,1.894,0,0,0,.066-.35,2.092,2.092,0,0,0,.031-.367V11.452H74.7a1.925,1.925,0,0,0-.366.034,1.75,1.75,0,0,0-.35.064,1.728,1.728,0,0,0-.351.146v-1.9a1.349,1.349,0,0,0,.351.163,1.752,1.752,0,0,0,.35.065,1.641,1.641,0,0,0,.366.024c.125-.005.256-.008.4-.008h9.078Z" transform="translate(25.61 0.08)" fill="#fff"/>
      <path id="패스_3379" data-name="패스 3379" d="M89.679,1.458V1.247a.819.819,0,0,0-.033-.228.671.671,0,0,0-.075-.228A1.078,1.078,0,0,0,89.4.547h2.571A.9.9,0,0,0,91.747,1a2.4,2.4,0,0,0-.05.455V4.338a5.408,5.408,0,0,0,.317,1.853A6.051,6.051,0,0,0,92.885,7.8,6.787,6.787,0,0,0,94.169,9.1a6.373,6.373,0,0,0,1.562.887L94.691,11.1a7,7,0,0,1-1.173-.592,8.561,8.561,0,0,1-1.1-.823,6.833,6.833,0,0,1-.969-.96,4.64,4.64,0,0,1-.675-1.056A5.753,5.753,0,0,1,90,8.777,7.516,7.516,0,0,1,89,9.737a8.474,8.474,0,0,1-1.139.789,8.8,8.8,0,0,1-1.17.577L85.549,9.982a6.3,6.3,0,0,0,1.667-.895,6.653,6.653,0,0,0,1.308-1.3,6.2,6.2,0,0,0,.847-1.6,5.487,5.487,0,0,0,.308-1.829Zm9.24.5V13.057c0,.118,0,.237-.008.357a1.591,1.591,0,0,0,.024.358,1.333,1.333,0,0,0,.089.375,1.773,1.773,0,0,0,.22.374h-2.52a1.515,1.515,0,0,0,.211-.374,2.172,2.172,0,0,0,.095-.375c.011-.119.019-.239.019-.358V1.6A1.917,1.917,0,0,0,97,1.182a1.5,1.5,0,0,0-.138-.432,1.567,1.567,0,0,0-.3-.413h2.845a1.391,1.391,0,0,0-.315.413,1.6,1.6,0,0,0-.141.432,1.606,1.606,0,0,0-.039.413c.005.137.008.259.008.367" transform="translate(30.419 0.119)" fill="#fff"/>
      <path id="패스_3380" data-name="패스 3380" d="M108.961,13.014H98.429a2.645,2.645,0,0,0-.4.033,1.825,1.825,0,0,0-.431.089,2.43,2.43,0,0,0-.445.2v-2.1a2.016,2.016,0,0,0,.445.22,1.9,1.9,0,0,0,.431.089,2.055,2.055,0,0,0,.4.024c.125-.007.241-.009.35-.009h10.183c.1,0,.209,0,.333.009a2.073,2.073,0,0,0,.4-.024,1.844,1.844,0,0,0,.428-.089,2.369,2.369,0,0,0,.464-.22v2.1a2.917,2.917,0,0,0-.464-.2,1.776,1.776,0,0,0-.428-.089,2.686,2.686,0,0,0-.4-.033ZM102.893,1.367v-.2a.9.9,0,0,0-.031-.236.8.8,0,0,0-.075-.252.617.617,0,0,0-.169-.22h2.489a.743.743,0,0,0-.244.472,3.912,3.912,0,0,0-.031.439v.618a4.35,4.35,0,0,0,.445,1.936,6.067,6.067,0,0,0,1.212,1.658,8.355,8.355,0,0,0,1.774,1.286,9.268,9.268,0,0,0,2.131.846L109.287,8.85a8.177,8.177,0,0,1-1.522-.611,11.255,11.255,0,0,1-1.5-.934,9.731,9.731,0,0,1-1.326-1.164,6.253,6.253,0,0,1-1-1.373,6.682,6.682,0,0,1-1.036,1.4,9.876,9.876,0,0,1-1.324,1.155,10.187,10.187,0,0,1-1.514.91,10.887,10.887,0,0,1-1.578.636l-1.1-1.14a9.09,9.09,0,0,0,2.1-.846,8.05,8.05,0,0,0,1.766-1.3,6.127,6.127,0,0,0,1.194-1.666,4.333,4.333,0,0,0,.447-1.928Z" transform="translate(34.545 0.161)" fill="#fff"/>
      <path id="패스_3381" data-name="패스 3381" d="M112.481,8.282h-2.39a1.419,1.419,0,0,1-1.465-1.464V2.182a2.242,2.242,0,0,0-.153-.861,2.445,2.445,0,0,0-.545-.765h4.895c.13,0,.258,0,.384.008a1.564,1.564,0,0,0,.366-.026,1.786,1.786,0,0,0,.35-.064,1.539,1.539,0,0,0,.365-.164V2.23a2.079,2.079,0,0,0-.365-.145,2.017,2.017,0,0,0-.35-.066,2.173,2.173,0,0,0-.366-.031h-2.759V3.7h1.628c.292,0,.546-.011.763-.033a2.687,2.687,0,0,0,.7-.18V5.224a3.669,3.669,0,0,0-.7-.171,6.532,6.532,0,0,0-.763-.041h-1.628V6.835h2.245c.424,0,.882-.018,1.375-.049a10.461,10.461,0,0,0,1.244-.148V8.005a9.345,9.345,0,0,1-1.4.211c-.522.045-1,.065-1.433.065m-.325,6.248a1.423,1.423,0,0,1-1.464-1.464V11.032a4.214,4.214,0,0,0-.1-.9,1.483,1.483,0,0,0-.358-.725h10.818V14.53Zm.424-1.449h6.556V10.8H112.58Zm3.221-8.3c-.2,0-.409.009-.643.026a2.423,2.423,0,0,0-.659.137V3.207a1.884,1.884,0,0,0,.659.148c.233.009.447.015.643.015h.291V1.606a1.833,1.833,0,0,0-.047-.415,1.569,1.569,0,0,0-.14-.431,1.488,1.488,0,0,0-.3-.415h2.733a1.415,1.415,0,0,0-.319.415,1.508,1.508,0,0,0-.137.431,1.561,1.561,0,0,0-.041.415q.008.2.008.366V7.454c0,.141,0,.267-.008.381a2.069,2.069,0,0,0,.008.319c.011.1.027.194.047.291a1.406,1.406,0,0,0,.114.31h-2.081a2.3,2.3,0,0,0,.1-.31,2.688,2.688,0,0,0,.049-.291c.01-.1.015-.2.015-.319V4.784Zm5.336,2.669c0,.141,0,.267-.008.381a2.038,2.038,0,0,0,.008.319c.011.1.027.194.047.291a1.406,1.406,0,0,0,.114.31h-2.081a2.286,2.286,0,0,0,.1-.31,2.367,2.367,0,0,0,.047-.291,2.919,2.919,0,0,0,.016-.319V1.606a1.913,1.913,0,0,0-.047-.415,1.528,1.528,0,0,0-.439-.846h2.731a1.436,1.436,0,0,0-.317.415,1.56,1.56,0,0,0-.138.431,1.616,1.616,0,0,0-.039.415q.008.2.008.366Z" transform="translate(38.377 0.11)" fill="#fff"/>
    </g>
  </g>
</svg>
